%TF.GenerationSoftware,KiCad,Pcbnew,(5.1.10)-1*%
%TF.CreationDate,2021-06-22T20:16:26+08:00*%
%TF.ProjectId,sm8223,736d3832-3233-42e6-9b69-6361645f7063,rev?*%
%TF.SameCoordinates,Original*%
%TF.FileFunction,Copper,L2,Bot*%
%TF.FilePolarity,Positive*%
%FSLAX46Y46*%
G04 Gerber Fmt 4.6, Leading zero omitted, Abs format (unit mm)*
G04 Created by KiCad (PCBNEW (5.1.10)-1) date 2021-06-22 20:16:26*
%MOMM*%
%LPD*%
G01*
G04 APERTURE LIST*
%TA.AperFunction,ComponentPad*%
%ADD10R,2.200000X2.200000*%
%TD*%
%TA.AperFunction,ComponentPad*%
%ADD11O,2.200000X2.200000*%
%TD*%
%TA.AperFunction,ComponentPad*%
%ADD12C,1.520000*%
%TD*%
%TA.AperFunction,ComponentPad*%
%ADD13R,1.520000X1.520000*%
%TD*%
%TA.AperFunction,ComponentPad*%
%ADD14R,1.600000X1.600000*%
%TD*%
%TA.AperFunction,ComponentPad*%
%ADD15O,1.600000X1.600000*%
%TD*%
%TA.AperFunction,ComponentPad*%
%ADD16R,1.560000X1.560000*%
%TD*%
%TA.AperFunction,ComponentPad*%
%ADD17C,1.560000*%
%TD*%
%TA.AperFunction,ComponentPad*%
%ADD18C,1.500000*%
%TD*%
%TA.AperFunction,ViaPad*%
%ADD19C,0.800000*%
%TD*%
%TA.AperFunction,Conductor*%
%ADD20C,0.250000*%
%TD*%
G04 APERTURE END LIST*
D10*
%TO.P,D2,1*%
%TO.N,VCC*%
X80655000Y-46125000D03*
D11*
%TO.P,D2,2*%
%TO.N,Net-(D2-Pad2)*%
X88275000Y-46125000D03*
%TD*%
%TO.P,D3,2*%
%TO.N,GND*%
X77195000Y-70425000D03*
D10*
%TO.P,D3,1*%
%TO.N,Net-(D2-Pad2)*%
X69575000Y-70425000D03*
%TD*%
%TO.P,D4,1*%
%TO.N,VCC*%
X80945000Y-61925000D03*
D11*
%TO.P,D4,2*%
%TO.N,Net-(D4-Pad2)*%
X88565000Y-61925000D03*
%TD*%
%TO.P,D5,2*%
%TO.N,GND*%
X77195000Y-66175000D03*
D10*
%TO.P,D5,1*%
%TO.N,Net-(D4-Pad2)*%
X69575000Y-66175000D03*
%TD*%
D11*
%TO.P,D6,2*%
%TO.N,GND*%
X88275000Y-41875000D03*
D10*
%TO.P,D6,1*%
%TO.N,Net-(D6-Pad1)*%
X80655000Y-41875000D03*
%TD*%
%TO.P,D7,1*%
%TO.N,Net-(D7-Pad1)*%
X82725000Y-53425000D03*
D11*
%TO.P,D7,2*%
%TO.N,GND*%
X90345000Y-53425000D03*
%TD*%
D10*
%TO.P,D8,1*%
%TO.N,Net-(D8-Pad1)*%
X80655000Y-37625000D03*
D11*
%TO.P,D8,2*%
%TO.N,Net-(D6-Pad1)*%
X88275000Y-37625000D03*
%TD*%
%TO.P,D9,2*%
%TO.N,Net-(D7-Pad1)*%
X77195000Y-61925000D03*
D10*
%TO.P,D9,1*%
%TO.N,Net-(D8-Pad1)*%
X69575000Y-61925000D03*
%TD*%
%TO.P,D10,1*%
%TO.N,VCC*%
X80655000Y-33375000D03*
D11*
%TO.P,D10,2*%
%TO.N,Net-(D10-Pad2)*%
X88275000Y-33375000D03*
%TD*%
D12*
%TO.P,J1,6*%
%TO.N,Net-(J1-Pad6)*%
X90170000Y-72390000D03*
%TO.P,J1,5*%
%TO.N,Net-(J1-Pad5)*%
X88900000Y-69850000D03*
%TO.P,J1,4*%
%TO.N,Net-(C1-Pad2)*%
X87630000Y-72390000D03*
%TO.P,J1,3*%
%TO.N,Net-(C2-Pad2)*%
X86360000Y-69850000D03*
%TO.P,J1,2*%
%TO.N,Net-(J1-Pad2)*%
X85090000Y-72390000D03*
D13*
%TO.P,J1,1*%
%TO.N,Net-(J1-Pad1)*%
X83820000Y-69850000D03*
%TD*%
D14*
%TO.P,U1,1*%
%TO.N,Net-(R5-Pad1)*%
X69325000Y-33325000D03*
D15*
%TO.P,U1,9*%
%TO.N,GND*%
X76945000Y-51105000D03*
%TO.P,U1,2*%
%TO.N,Net-(R10-Pad1)*%
X69325000Y-35865000D03*
%TO.P,U1,10*%
%TO.N,Net-(U1-Pad10)*%
X76945000Y-48565000D03*
%TO.P,U1,3*%
%TO.N,Net-(R12-Pad2)*%
X69325000Y-38405000D03*
%TO.P,U1,11*%
%TO.N,Net-(U1-Pad11)*%
X76945000Y-46025000D03*
%TO.P,U1,4*%
%TO.N,Net-(C5-Pad1)*%
X69325000Y-40945000D03*
%TO.P,U1,12*%
%TO.N,GND*%
X76945000Y-43485000D03*
%TO.P,U1,5*%
%TO.N,Net-(D10-Pad2)*%
X69325000Y-43485000D03*
%TO.P,U1,13*%
%TO.N,Net-(U1-Pad13)*%
X76945000Y-40945000D03*
%TO.P,U1,6*%
%TO.N,Net-(C6-Pad1)*%
X69325000Y-46025000D03*
%TO.P,U1,14*%
%TO.N,Net-(U1-Pad14)*%
X76945000Y-38405000D03*
%TO.P,U1,7*%
%TO.N,Net-(U1-Pad7)*%
X69325000Y-48565000D03*
%TO.P,U1,15*%
%TO.N,Net-(U1-Pad15)*%
X76945000Y-35865000D03*
%TO.P,U1,8*%
%TO.N,GND*%
X69325000Y-51105000D03*
%TO.P,U1,16*%
%TO.N,VCC*%
X76945000Y-33325000D03*
%TD*%
D16*
%TO.P,U2,1*%
%TO.N,VCC*%
X40280000Y-39860000D03*
D17*
%TO.P,U2,2*%
%TO.N,Net-(U2-Pad2)*%
X40280000Y-42400000D03*
%TO.P,U2,19*%
%TO.N,Net-(U2-Pad19)*%
X40280000Y-85580000D03*
%TO.P,U2,3*%
%TO.N,Net-(U2-Pad3)*%
X40280000Y-44940000D03*
%TO.P,U2,4*%
%TO.N,Net-(U2-Pad4)*%
X40280000Y-47480000D03*
%TO.P,U2,5*%
%TO.N,Net-(U1-Pad7)*%
X40280000Y-50020000D03*
%TO.P,U2,6*%
%TO.N,Net-(U1-Pad15)*%
X40280000Y-52560000D03*
%TO.P,U2,7*%
%TO.N,Net-(U2-Pad7)*%
X40280000Y-55100000D03*
%TO.P,U2,8*%
%TO.N,Net-(U1-Pad13)*%
X40280000Y-57640000D03*
%TO.P,U2,9*%
%TO.N,Net-(U1-Pad14)*%
X40280000Y-60180000D03*
%TO.P,U2,10*%
%TO.N,Net-(U2-Pad10)*%
X40280000Y-62720000D03*
%TO.P,U2,11*%
%TO.N,Net-(U2-Pad11)*%
X40280000Y-65260000D03*
%TO.P,U2,12*%
%TO.N,Net-(U2-Pad12)*%
X40280000Y-67800000D03*
%TO.P,U2,13*%
%TO.N,Net-(U2-Pad13)*%
X40280000Y-70340000D03*
%TO.P,U2,14*%
%TO.N,Net-(U2-Pad14)*%
X40280000Y-72880000D03*
%TO.P,U2,15*%
%TO.N,Net-(U2-Pad15)*%
X40280000Y-75420000D03*
%TO.P,U2,16*%
%TO.N,Net-(U2-Pad16)*%
X40280000Y-77960000D03*
%TO.P,U2,17*%
%TO.N,Net-(U2-Pad17)*%
X40280000Y-80500000D03*
%TO.P,U2,18*%
%TO.N,Net-(U2-Pad18)*%
X40280000Y-83040000D03*
%TO.P,U2,20*%
%TO.N,GND*%
X65680000Y-39860000D03*
%TO.P,U2,21*%
%TO.N,Net-(U2-Pad21)*%
X65680000Y-42400000D03*
%TO.P,U2,22*%
%TO.N,Net-(U2-Pad22)*%
X65680000Y-44940000D03*
%TO.P,U2,23*%
%TO.N,Net-(U2-Pad23)*%
X65680000Y-47480000D03*
%TO.P,U2,24*%
%TO.N,Net-(U2-Pad24)*%
X65680000Y-50020000D03*
%TO.P,U2,25*%
%TO.N,Net-(U2-Pad25)*%
X65680000Y-52560000D03*
%TO.P,U2,26*%
%TO.N,Net-(U2-Pad26)*%
X65680000Y-55100000D03*
%TO.P,U2,27*%
%TO.N,Net-(U2-Pad27)*%
X65680000Y-57640000D03*
%TO.P,U2,28*%
%TO.N,Net-(U2-Pad28)*%
X65680000Y-60180000D03*
%TO.P,U2,29*%
%TO.N,Net-(U2-Pad29)*%
X65680000Y-62720000D03*
%TO.P,U2,30*%
%TO.N,Net-(U2-Pad30)*%
X65680000Y-65260000D03*
%TO.P,U2,31*%
%TO.N,Net-(U2-Pad31)*%
X65680000Y-67800000D03*
%TO.P,U2,32*%
%TO.N,Net-(U2-Pad32)*%
X65680000Y-70340000D03*
%TO.P,U2,33*%
%TO.N,Net-(U2-Pad33)*%
X65680000Y-72880000D03*
%TO.P,U2,34*%
%TO.N,Net-(U2-Pad34)*%
X65680000Y-75420000D03*
%TO.P,U2,35*%
%TO.N,Net-(U2-Pad35)*%
X65680000Y-77960000D03*
%TO.P,U2,36*%
%TO.N,Net-(U2-Pad36)*%
X65680000Y-80500000D03*
%TO.P,U2,37*%
%TO.N,Net-(U2-Pad37)*%
X65680000Y-83040000D03*
%TO.P,U2,38*%
%TO.N,Net-(U2-Pad38)*%
X65680000Y-85580000D03*
%TD*%
D18*
%TO.P,Y1,1*%
%TO.N,Net-(U1-Pad11)*%
X71825000Y-56475000D03*
%TO.P,Y1,2*%
%TO.N,Net-(U1-Pad10)*%
X76705000Y-56475000D03*
%TD*%
D19*
%TO.N,Net-(C2-Pad2)*%
X69405000Y-74348200D03*
%TO.N,Net-(C4-Pad1)*%
X69591600Y-72846200D03*
X84430300Y-51907100D03*
%TO.N,Net-(C5-Pad1)*%
X89171000Y-51520800D03*
X82680400Y-50697900D03*
%TO.N,VCC*%
X69405000Y-82250000D03*
X93375000Y-59855800D03*
%TO.N,Net-(R5-Pad1)*%
X89007800Y-50316600D03*
%TO.N,Net-(U1-Pad13)*%
X74061500Y-43009100D03*
%TD*%
D20*
%TO.N,Net-(C2-Pad2)*%
X86360000Y-69850000D02*
X86095000Y-69850000D01*
X86095000Y-69850000D02*
X81596800Y-74348200D01*
X81596800Y-74348200D02*
X69405000Y-74348200D01*
%TO.N,Net-(C4-Pad1)*%
X69591600Y-72846200D02*
X69256900Y-72846200D01*
X69256900Y-72846200D02*
X68149600Y-71738900D01*
X68149600Y-71738900D02*
X68149600Y-64850900D01*
X68149600Y-64850900D02*
X69650000Y-63350500D01*
X69650000Y-63350500D02*
X71350700Y-63350500D01*
X71350700Y-63350500D02*
X78694000Y-56007200D01*
X78694000Y-56007200D02*
X78694000Y-54763500D01*
X78694000Y-54763500D02*
X81550400Y-51907100D01*
X81550400Y-51907100D02*
X84430300Y-51907100D01*
%TO.N,GND*%
X78070300Y-51105000D02*
X78388500Y-51423200D01*
X78388500Y-51423200D02*
X82980900Y-51423200D01*
X82980900Y-51423200D02*
X83235900Y-51168200D01*
X83235900Y-51168200D02*
X86662900Y-51168200D01*
X86662900Y-51168200D02*
X88919700Y-53425000D01*
X76945000Y-51105000D02*
X78070300Y-51105000D01*
X69325000Y-51105000D02*
X76945000Y-51105000D01*
X90345000Y-53425000D02*
X88919700Y-53425000D01*
X75819700Y-43485000D02*
X74618500Y-42283800D01*
X74618500Y-42283800D02*
X68103800Y-42283800D01*
X68103800Y-42283800D02*
X65680000Y-39860000D01*
X76945000Y-43485000D02*
X75819700Y-43485000D01*
%TO.N,Net-(C5-Pad1)*%
X82680400Y-50697900D02*
X88348100Y-50697900D01*
X88348100Y-50697900D02*
X89171000Y-51520800D01*
X69325000Y-40945000D02*
X75144800Y-40945000D01*
X75144800Y-40945000D02*
X76414800Y-42215000D01*
X76414800Y-42215000D02*
X77271200Y-42215000D01*
X77271200Y-42215000D02*
X78566500Y-43510300D01*
X78566500Y-43510300D02*
X78566500Y-46698300D01*
X78566500Y-46698300D02*
X82566100Y-50697900D01*
X82566100Y-50697900D02*
X82680400Y-50697900D01*
%TO.N,VCC*%
X90005700Y-60480200D02*
X83815100Y-60480200D01*
X83815100Y-60480200D02*
X82370300Y-61925000D01*
X93375000Y-59855800D02*
X90630100Y-59855800D01*
X90630100Y-59855800D02*
X90005700Y-60480200D01*
X90005700Y-60480200D02*
X90005700Y-65095300D01*
X90005700Y-65095300D02*
X87630000Y-67471000D01*
X87630000Y-67471000D02*
X87630000Y-70565600D01*
X87630000Y-70565600D02*
X86360000Y-71835600D01*
X86360000Y-71835600D02*
X86360000Y-72655600D01*
X86360000Y-72655600D02*
X83942000Y-75073600D01*
X83942000Y-75073600D02*
X76581400Y-75073600D01*
X76581400Y-75073600D02*
X69405000Y-82250000D01*
X76945000Y-33325000D02*
X75819700Y-33325000D01*
X40280000Y-39860000D02*
X41385300Y-39860000D01*
X41385300Y-39860000D02*
X46795000Y-34450300D01*
X46795000Y-34450300D02*
X74694400Y-34450300D01*
X74694400Y-34450300D02*
X75819700Y-33325000D01*
X80945000Y-61925000D02*
X82370300Y-61925000D01*
X80655000Y-46125000D02*
X80655000Y-44699700D01*
X79229700Y-33375000D02*
X79229700Y-43274400D01*
X79229700Y-43274400D02*
X80655000Y-44699700D01*
X79342300Y-33375000D02*
X79229700Y-33375000D01*
X80655000Y-33375000D02*
X79342300Y-33375000D01*
X76945000Y-33325000D02*
X79179700Y-33325000D01*
X79179700Y-33325000D02*
X79229700Y-33375000D01*
%TO.N,Net-(D4-Pad2)*%
X71000300Y-66175000D02*
X73825000Y-63350300D01*
X73825000Y-63350300D02*
X85714400Y-63350300D01*
X85714400Y-63350300D02*
X87139700Y-61925000D01*
X88565000Y-61925000D02*
X87139700Y-61925000D01*
X69575000Y-66175000D02*
X71000300Y-66175000D01*
%TO.N,Net-(D6-Pad1)*%
X80655000Y-41875000D02*
X82080300Y-41875000D01*
X82080300Y-41875000D02*
X86330300Y-37625000D01*
X86330300Y-37625000D02*
X88275000Y-37625000D01*
%TO.N,Net-(D7-Pad1)*%
X77195000Y-61925000D02*
X77195000Y-60499700D01*
X77195000Y-60499700D02*
X82725000Y-54969700D01*
X82725000Y-54969700D02*
X82725000Y-54850300D01*
X82725000Y-53425000D02*
X82725000Y-54850300D01*
%TO.N,Net-(R5-Pad1)*%
X69325000Y-33325000D02*
X70450300Y-33325000D01*
X70450300Y-33325000D02*
X71825700Y-31949600D01*
X71825700Y-31949600D02*
X84684200Y-31949600D01*
X84684200Y-31949600D02*
X89798200Y-37063600D01*
X89798200Y-37063600D02*
X89798200Y-49526200D01*
X89798200Y-49526200D02*
X89007800Y-50316600D01*
%TO.N,Net-(U1-Pad11)*%
X76945000Y-46025000D02*
X75819700Y-46025000D01*
X71825000Y-56475000D02*
X68168300Y-52818300D01*
X68168300Y-52818300D02*
X68168300Y-50637800D01*
X68168300Y-50637800D02*
X68826500Y-49979600D01*
X68826500Y-49979600D02*
X71865100Y-49979600D01*
X71865100Y-49979600D02*
X75819700Y-46025000D01*
%TO.N,Net-(U1-Pad13)*%
X40280000Y-57640000D02*
X39149500Y-58770500D01*
X39149500Y-58770500D02*
X39149500Y-60622400D01*
X39149500Y-60622400D02*
X39821900Y-61294800D01*
X39821900Y-61294800D02*
X48032700Y-61294800D01*
X48032700Y-61294800D02*
X63117500Y-46210000D01*
X63117500Y-46210000D02*
X66445700Y-46210000D01*
X66445700Y-46210000D02*
X67900700Y-44755000D01*
X67900700Y-44755000D02*
X72315600Y-44755000D01*
X72315600Y-44755000D02*
X74061500Y-43009100D01*
%TO.N,Net-(U1-Pad14)*%
X40280000Y-60180000D02*
X61712800Y-38747200D01*
X61712800Y-38747200D02*
X66949100Y-38747200D01*
X66949100Y-38747200D02*
X67732200Y-39530300D01*
X67732200Y-39530300D02*
X74694400Y-39530300D01*
X74694400Y-39530300D02*
X75819700Y-38405000D01*
X76945000Y-38405000D02*
X75819700Y-38405000D01*
%TO.N,Net-(U1-Pad15)*%
X76945000Y-35865000D02*
X75819700Y-35865000D01*
X40280000Y-52560000D02*
X55849700Y-36990300D01*
X55849700Y-36990300D02*
X74694400Y-36990300D01*
X74694400Y-36990300D02*
X75819700Y-35865000D01*
%TD*%
M02*
