%TF.GenerationSoftware,KiCad,Pcbnew,(5.1.10)-1*%
%TF.CreationDate,2021-06-22T20:16:26+08:00*%
%TF.ProjectId,sm8223,736d3832-3233-42e6-9b69-6361645f7063,rev?*%
%TF.SameCoordinates,Original*%
%TF.FileFunction,Copper,L1,Top*%
%TF.FilePolarity,Positive*%
%FSLAX46Y46*%
G04 Gerber Fmt 4.6, Leading zero omitted, Abs format (unit mm)*
G04 Created by KiCad (PCBNEW (5.1.10)-1) date 2021-06-22 20:16:26*
%MOMM*%
%LPD*%
G01*
G04 APERTURE LIST*
%TA.AperFunction,ComponentPad*%
%ADD10R,2.200000X2.200000*%
%TD*%
%TA.AperFunction,ComponentPad*%
%ADD11O,2.200000X2.200000*%
%TD*%
%TA.AperFunction,ComponentPad*%
%ADD12C,1.520000*%
%TD*%
%TA.AperFunction,ComponentPad*%
%ADD13R,1.520000X1.520000*%
%TD*%
%TA.AperFunction,ComponentPad*%
%ADD14R,1.600000X1.600000*%
%TD*%
%TA.AperFunction,ComponentPad*%
%ADD15O,1.600000X1.600000*%
%TD*%
%TA.AperFunction,ComponentPad*%
%ADD16R,1.560000X1.560000*%
%TD*%
%TA.AperFunction,ComponentPad*%
%ADD17C,1.560000*%
%TD*%
%TA.AperFunction,ComponentPad*%
%ADD18C,1.500000*%
%TD*%
%TA.AperFunction,ViaPad*%
%ADD19C,0.800000*%
%TD*%
%TA.AperFunction,Conductor*%
%ADD20C,0.250000*%
%TD*%
G04 APERTURE END LIST*
%TO.P,C1,2*%
%TO.N,Net-(C1-Pad2)*%
%TA.AperFunction,SMDPad,CuDef*%
G36*
G01*
X77440000Y-81015000D02*
X77440000Y-80515000D01*
G75*
G02*
X77665000Y-80290000I225000J0D01*
G01*
X78115000Y-80290000D01*
G75*
G02*
X78340000Y-80515000I0J-225000D01*
G01*
X78340000Y-81015000D01*
G75*
G02*
X78115000Y-81240000I-225000J0D01*
G01*
X77665000Y-81240000D01*
G75*
G02*
X77440000Y-81015000I0J225000D01*
G01*
G37*
%TD.AperFunction*%
%TO.P,C1,1*%
%TO.N,Net-(C1-Pad1)*%
%TA.AperFunction,SMDPad,CuDef*%
G36*
G01*
X75890000Y-81015000D02*
X75890000Y-80515000D01*
G75*
G02*
X76115000Y-80290000I225000J0D01*
G01*
X76565000Y-80290000D01*
G75*
G02*
X76790000Y-80515000I0J-225000D01*
G01*
X76790000Y-81015000D01*
G75*
G02*
X76565000Y-81240000I-225000J0D01*
G01*
X76115000Y-81240000D01*
G75*
G02*
X75890000Y-81015000I0J225000D01*
G01*
G37*
%TD.AperFunction*%
%TD*%
%TO.P,C2,1*%
%TO.N,Net-(C2-Pad1)*%
%TA.AperFunction,SMDPad,CuDef*%
G36*
G01*
X90930000Y-35265000D02*
X90930000Y-34765000D01*
G75*
G02*
X91155000Y-34540000I225000J0D01*
G01*
X91605000Y-34540000D01*
G75*
G02*
X91830000Y-34765000I0J-225000D01*
G01*
X91830000Y-35265000D01*
G75*
G02*
X91605000Y-35490000I-225000J0D01*
G01*
X91155000Y-35490000D01*
G75*
G02*
X90930000Y-35265000I0J225000D01*
G01*
G37*
%TD.AperFunction*%
%TO.P,C2,2*%
%TO.N,Net-(C2-Pad2)*%
%TA.AperFunction,SMDPad,CuDef*%
G36*
G01*
X92480000Y-35265000D02*
X92480000Y-34765000D01*
G75*
G02*
X92705000Y-34540000I225000J0D01*
G01*
X93155000Y-34540000D01*
G75*
G02*
X93380000Y-34765000I0J-225000D01*
G01*
X93380000Y-35265000D01*
G75*
G02*
X93155000Y-35490000I-225000J0D01*
G01*
X92705000Y-35490000D01*
G75*
G02*
X92480000Y-35265000I0J225000D01*
G01*
G37*
%TD.AperFunction*%
%TD*%
%TO.P,C3,2*%
%TO.N,Net-(C1-Pad2)*%
%TA.AperFunction,SMDPad,CuDef*%
G36*
G01*
X92480000Y-32755000D02*
X92480000Y-32255000D01*
G75*
G02*
X92705000Y-32030000I225000J0D01*
G01*
X93155000Y-32030000D01*
G75*
G02*
X93380000Y-32255000I0J-225000D01*
G01*
X93380000Y-32755000D01*
G75*
G02*
X93155000Y-32980000I-225000J0D01*
G01*
X92705000Y-32980000D01*
G75*
G02*
X92480000Y-32755000I0J225000D01*
G01*
G37*
%TD.AperFunction*%
%TO.P,C3,1*%
%TO.N,Net-(C3-Pad1)*%
%TA.AperFunction,SMDPad,CuDef*%
G36*
G01*
X90930000Y-32755000D02*
X90930000Y-32255000D01*
G75*
G02*
X91155000Y-32030000I225000J0D01*
G01*
X91605000Y-32030000D01*
G75*
G02*
X91830000Y-32255000I0J-225000D01*
G01*
X91830000Y-32755000D01*
G75*
G02*
X91605000Y-32980000I-225000J0D01*
G01*
X91155000Y-32980000D01*
G75*
G02*
X90930000Y-32755000I0J225000D01*
G01*
G37*
%TD.AperFunction*%
%TD*%
%TO.P,C4,1*%
%TO.N,Net-(C4-Pad1)*%
%TA.AperFunction,SMDPad,CuDef*%
G36*
G01*
X69655000Y-77460000D02*
X69155000Y-77460000D01*
G75*
G02*
X68930000Y-77235000I0J225000D01*
G01*
X68930000Y-76785000D01*
G75*
G02*
X69155000Y-76560000I225000J0D01*
G01*
X69655000Y-76560000D01*
G75*
G02*
X69880000Y-76785000I0J-225000D01*
G01*
X69880000Y-77235000D01*
G75*
G02*
X69655000Y-77460000I-225000J0D01*
G01*
G37*
%TD.AperFunction*%
%TO.P,C4,2*%
%TO.N,Net-(C2-Pad2)*%
%TA.AperFunction,SMDPad,CuDef*%
G36*
G01*
X69655000Y-75910000D02*
X69155000Y-75910000D01*
G75*
G02*
X68930000Y-75685000I0J225000D01*
G01*
X68930000Y-75235000D01*
G75*
G02*
X69155000Y-75010000I225000J0D01*
G01*
X69655000Y-75010000D01*
G75*
G02*
X69880000Y-75235000I0J-225000D01*
G01*
X69880000Y-75685000D01*
G75*
G02*
X69655000Y-75910000I-225000J0D01*
G01*
G37*
%TD.AperFunction*%
%TD*%
%TO.P,C5,2*%
%TO.N,GND*%
%TA.AperFunction,SMDPad,CuDef*%
G36*
G01*
X83180000Y-57055000D02*
X83180000Y-56555000D01*
G75*
G02*
X83405000Y-56330000I225000J0D01*
G01*
X83855000Y-56330000D01*
G75*
G02*
X84080000Y-56555000I0J-225000D01*
G01*
X84080000Y-57055000D01*
G75*
G02*
X83855000Y-57280000I-225000J0D01*
G01*
X83405000Y-57280000D01*
G75*
G02*
X83180000Y-57055000I0J225000D01*
G01*
G37*
%TD.AperFunction*%
%TO.P,C5,1*%
%TO.N,Net-(C5-Pad1)*%
%TA.AperFunction,SMDPad,CuDef*%
G36*
G01*
X81630000Y-57055000D02*
X81630000Y-56555000D01*
G75*
G02*
X81855000Y-56330000I225000J0D01*
G01*
X82305000Y-56330000D01*
G75*
G02*
X82530000Y-56555000I0J-225000D01*
G01*
X82530000Y-57055000D01*
G75*
G02*
X82305000Y-57280000I-225000J0D01*
G01*
X81855000Y-57280000D01*
G75*
G02*
X81630000Y-57055000I0J225000D01*
G01*
G37*
%TD.AperFunction*%
%TD*%
%TO.P,C6,2*%
%TO.N,GND*%
%TA.AperFunction,SMDPad,CuDef*%
G36*
G01*
X69655000Y-79920000D02*
X69155000Y-79920000D01*
G75*
G02*
X68930000Y-79695000I0J225000D01*
G01*
X68930000Y-79245000D01*
G75*
G02*
X69155000Y-79020000I225000J0D01*
G01*
X69655000Y-79020000D01*
G75*
G02*
X69880000Y-79245000I0J-225000D01*
G01*
X69880000Y-79695000D01*
G75*
G02*
X69655000Y-79920000I-225000J0D01*
G01*
G37*
%TD.AperFunction*%
%TO.P,C6,1*%
%TO.N,Net-(C6-Pad1)*%
%TA.AperFunction,SMDPad,CuDef*%
G36*
G01*
X69655000Y-81470000D02*
X69155000Y-81470000D01*
G75*
G02*
X68930000Y-81245000I0J225000D01*
G01*
X68930000Y-80795000D01*
G75*
G02*
X69155000Y-80570000I225000J0D01*
G01*
X69655000Y-80570000D01*
G75*
G02*
X69880000Y-80795000I0J-225000D01*
G01*
X69880000Y-81245000D01*
G75*
G02*
X69655000Y-81470000I-225000J0D01*
G01*
G37*
%TD.AperFunction*%
%TD*%
%TO.P,C7,1*%
%TO.N,GND*%
%TA.AperFunction,SMDPad,CuDef*%
G36*
G01*
X69655000Y-85480000D02*
X69155000Y-85480000D01*
G75*
G02*
X68930000Y-85255000I0J225000D01*
G01*
X68930000Y-84805000D01*
G75*
G02*
X69155000Y-84580000I225000J0D01*
G01*
X69655000Y-84580000D01*
G75*
G02*
X69880000Y-84805000I0J-225000D01*
G01*
X69880000Y-85255000D01*
G75*
G02*
X69655000Y-85480000I-225000J0D01*
G01*
G37*
%TD.AperFunction*%
%TO.P,C7,2*%
%TO.N,VCC*%
%TA.AperFunction,SMDPad,CuDef*%
G36*
G01*
X69655000Y-83930000D02*
X69155000Y-83930000D01*
G75*
G02*
X68930000Y-83705000I0J225000D01*
G01*
X68930000Y-83255000D01*
G75*
G02*
X69155000Y-83030000I225000J0D01*
G01*
X69655000Y-83030000D01*
G75*
G02*
X69880000Y-83255000I0J-225000D01*
G01*
X69880000Y-83705000D01*
G75*
G02*
X69655000Y-83930000I-225000J0D01*
G01*
G37*
%TD.AperFunction*%
%TD*%
D10*
%TO.P,D2,1*%
%TO.N,VCC*%
X80655000Y-46125000D03*
D11*
%TO.P,D2,2*%
%TO.N,Net-(D2-Pad2)*%
X88275000Y-46125000D03*
%TD*%
%TO.P,D3,2*%
%TO.N,GND*%
X77195000Y-70425000D03*
D10*
%TO.P,D3,1*%
%TO.N,Net-(D2-Pad2)*%
X69575000Y-70425000D03*
%TD*%
%TO.P,D4,1*%
%TO.N,VCC*%
X80945000Y-61925000D03*
D11*
%TO.P,D4,2*%
%TO.N,Net-(D4-Pad2)*%
X88565000Y-61925000D03*
%TD*%
%TO.P,D5,2*%
%TO.N,GND*%
X77195000Y-66175000D03*
D10*
%TO.P,D5,1*%
%TO.N,Net-(D4-Pad2)*%
X69575000Y-66175000D03*
%TD*%
D11*
%TO.P,D6,2*%
%TO.N,GND*%
X88275000Y-41875000D03*
D10*
%TO.P,D6,1*%
%TO.N,Net-(D6-Pad1)*%
X80655000Y-41875000D03*
%TD*%
%TO.P,D7,1*%
%TO.N,Net-(D7-Pad1)*%
X82725000Y-53425000D03*
D11*
%TO.P,D7,2*%
%TO.N,GND*%
X90345000Y-53425000D03*
%TD*%
D10*
%TO.P,D8,1*%
%TO.N,Net-(D8-Pad1)*%
X80655000Y-37625000D03*
D11*
%TO.P,D8,2*%
%TO.N,Net-(D6-Pad1)*%
X88275000Y-37625000D03*
%TD*%
%TO.P,D9,2*%
%TO.N,Net-(D7-Pad1)*%
X77195000Y-61925000D03*
D10*
%TO.P,D9,1*%
%TO.N,Net-(D8-Pad1)*%
X69575000Y-61925000D03*
%TD*%
%TO.P,D10,1*%
%TO.N,VCC*%
X80655000Y-33375000D03*
D11*
%TO.P,D10,2*%
%TO.N,Net-(D10-Pad2)*%
X88275000Y-33375000D03*
%TD*%
D12*
%TO.P,J1,6*%
%TO.N,Net-(J1-Pad6)*%
X90170000Y-72390000D03*
%TO.P,J1,5*%
%TO.N,Net-(J1-Pad5)*%
X88900000Y-69850000D03*
%TO.P,J1,4*%
%TO.N,Net-(C1-Pad2)*%
X87630000Y-72390000D03*
%TO.P,J1,3*%
%TO.N,Net-(C2-Pad2)*%
X86360000Y-69850000D03*
%TO.P,J1,2*%
%TO.N,Net-(J1-Pad2)*%
X85090000Y-72390000D03*
D13*
%TO.P,J1,1*%
%TO.N,Net-(J1-Pad1)*%
X83820000Y-69850000D03*
%TD*%
%TO.P,R1,2*%
%TO.N,Net-(C1-Pad1)*%
%TA.AperFunction,SMDPad,CuDef*%
G36*
G01*
X73465000Y-83930000D02*
X72965000Y-83930000D01*
G75*
G02*
X72740000Y-83705000I0J225000D01*
G01*
X72740000Y-83255000D01*
G75*
G02*
X72965000Y-83030000I225000J0D01*
G01*
X73465000Y-83030000D01*
G75*
G02*
X73690000Y-83255000I0J-225000D01*
G01*
X73690000Y-83705000D01*
G75*
G02*
X73465000Y-83930000I-225000J0D01*
G01*
G37*
%TD.AperFunction*%
%TO.P,R1,1*%
%TO.N,Net-(D2-Pad2)*%
%TA.AperFunction,SMDPad,CuDef*%
G36*
G01*
X73465000Y-85480000D02*
X72965000Y-85480000D01*
G75*
G02*
X72740000Y-85255000I0J225000D01*
G01*
X72740000Y-84805000D01*
G75*
G02*
X72965000Y-84580000I225000J0D01*
G01*
X73465000Y-84580000D01*
G75*
G02*
X73690000Y-84805000I0J-225000D01*
G01*
X73690000Y-85255000D01*
G75*
G02*
X73465000Y-85480000I-225000J0D01*
G01*
G37*
%TD.AperFunction*%
%TD*%
%TO.P,R2,1*%
%TO.N,Net-(D4-Pad2)*%
%TA.AperFunction,SMDPad,CuDef*%
G36*
G01*
X85640000Y-57055000D02*
X85640000Y-56555000D01*
G75*
G02*
X85865000Y-56330000I225000J0D01*
G01*
X86315000Y-56330000D01*
G75*
G02*
X86540000Y-56555000I0J-225000D01*
G01*
X86540000Y-57055000D01*
G75*
G02*
X86315000Y-57280000I-225000J0D01*
G01*
X85865000Y-57280000D01*
G75*
G02*
X85640000Y-57055000I0J225000D01*
G01*
G37*
%TD.AperFunction*%
%TO.P,R2,2*%
%TO.N,Net-(C2-Pad1)*%
%TA.AperFunction,SMDPad,CuDef*%
G36*
G01*
X87190000Y-57055000D02*
X87190000Y-56555000D01*
G75*
G02*
X87415000Y-56330000I225000J0D01*
G01*
X87865000Y-56330000D01*
G75*
G02*
X88090000Y-56555000I0J-225000D01*
G01*
X88090000Y-57055000D01*
G75*
G02*
X87865000Y-57280000I-225000J0D01*
G01*
X87415000Y-57280000D01*
G75*
G02*
X87190000Y-57055000I0J225000D01*
G01*
G37*
%TD.AperFunction*%
%TD*%
%TO.P,R3,2*%
%TO.N,Net-(C3-Pad1)*%
%TA.AperFunction,SMDPad,CuDef*%
G36*
G01*
X85270000Y-66290000D02*
X85270000Y-65790000D01*
G75*
G02*
X85495000Y-65565000I225000J0D01*
G01*
X85945000Y-65565000D01*
G75*
G02*
X86170000Y-65790000I0J-225000D01*
G01*
X86170000Y-66290000D01*
G75*
G02*
X85945000Y-66515000I-225000J0D01*
G01*
X85495000Y-66515000D01*
G75*
G02*
X85270000Y-66290000I0J225000D01*
G01*
G37*
%TD.AperFunction*%
%TO.P,R3,1*%
%TO.N,Net-(D6-Pad1)*%
%TA.AperFunction,SMDPad,CuDef*%
G36*
G01*
X83720000Y-66290000D02*
X83720000Y-65790000D01*
G75*
G02*
X83945000Y-65565000I225000J0D01*
G01*
X84395000Y-65565000D01*
G75*
G02*
X84620000Y-65790000I0J-225000D01*
G01*
X84620000Y-66290000D01*
G75*
G02*
X84395000Y-66515000I-225000J0D01*
G01*
X83945000Y-66515000D01*
G75*
G02*
X83720000Y-66290000I0J225000D01*
G01*
G37*
%TD.AperFunction*%
%TD*%
%TO.P,R4,1*%
%TO.N,Net-(D7-Pad1)*%
%TA.AperFunction,SMDPad,CuDef*%
G36*
G01*
X83370000Y-49780000D02*
X83370000Y-49280000D01*
G75*
G02*
X83595000Y-49055000I225000J0D01*
G01*
X84045000Y-49055000D01*
G75*
G02*
X84270000Y-49280000I0J-225000D01*
G01*
X84270000Y-49780000D01*
G75*
G02*
X84045000Y-50005000I-225000J0D01*
G01*
X83595000Y-50005000D01*
G75*
G02*
X83370000Y-49780000I0J225000D01*
G01*
G37*
%TD.AperFunction*%
%TO.P,R4,2*%
%TO.N,Net-(C4-Pad1)*%
%TA.AperFunction,SMDPad,CuDef*%
G36*
G01*
X84920000Y-49780000D02*
X84920000Y-49280000D01*
G75*
G02*
X85145000Y-49055000I225000J0D01*
G01*
X85595000Y-49055000D01*
G75*
G02*
X85820000Y-49280000I0J-225000D01*
G01*
X85820000Y-49780000D01*
G75*
G02*
X85595000Y-50005000I-225000J0D01*
G01*
X85145000Y-50005000D01*
G75*
G02*
X84920000Y-49780000I0J225000D01*
G01*
G37*
%TD.AperFunction*%
%TD*%
%TO.P,R5,2*%
%TO.N,Net-(D2-Pad2)*%
%TA.AperFunction,SMDPad,CuDef*%
G36*
G01*
X89225000Y-66290000D02*
X89225000Y-65790000D01*
G75*
G02*
X89450000Y-65565000I225000J0D01*
G01*
X89900000Y-65565000D01*
G75*
G02*
X90125000Y-65790000I0J-225000D01*
G01*
X90125000Y-66290000D01*
G75*
G02*
X89900000Y-66515000I-225000J0D01*
G01*
X89450000Y-66515000D01*
G75*
G02*
X89225000Y-66290000I0J225000D01*
G01*
G37*
%TD.AperFunction*%
%TO.P,R5,1*%
%TO.N,Net-(R5-Pad1)*%
%TA.AperFunction,SMDPad,CuDef*%
G36*
G01*
X87675000Y-66290000D02*
X87675000Y-65790000D01*
G75*
G02*
X87900000Y-65565000I225000J0D01*
G01*
X88350000Y-65565000D01*
G75*
G02*
X88575000Y-65790000I0J-225000D01*
G01*
X88575000Y-66290000D01*
G75*
G02*
X88350000Y-66515000I-225000J0D01*
G01*
X87900000Y-66515000D01*
G75*
G02*
X87675000Y-66290000I0J225000D01*
G01*
G37*
%TD.AperFunction*%
%TD*%
%TO.P,R6,1*%
%TO.N,Net-(R10-Pad1)*%
%TA.AperFunction,SMDPad,CuDef*%
G36*
G01*
X73465000Y-81470000D02*
X72965000Y-81470000D01*
G75*
G02*
X72740000Y-81245000I0J225000D01*
G01*
X72740000Y-80795000D01*
G75*
G02*
X72965000Y-80570000I225000J0D01*
G01*
X73465000Y-80570000D01*
G75*
G02*
X73690000Y-80795000I0J-225000D01*
G01*
X73690000Y-81245000D01*
G75*
G02*
X73465000Y-81470000I-225000J0D01*
G01*
G37*
%TD.AperFunction*%
%TO.P,R6,2*%
%TO.N,Net-(D4-Pad2)*%
%TA.AperFunction,SMDPad,CuDef*%
G36*
G01*
X73465000Y-79920000D02*
X72965000Y-79920000D01*
G75*
G02*
X72740000Y-79695000I0J225000D01*
G01*
X72740000Y-79245000D01*
G75*
G02*
X72965000Y-79020000I225000J0D01*
G01*
X73465000Y-79020000D01*
G75*
G02*
X73690000Y-79245000I0J-225000D01*
G01*
X73690000Y-79695000D01*
G75*
G02*
X73465000Y-79920000I-225000J0D01*
G01*
G37*
%TD.AperFunction*%
%TD*%
%TO.P,R7,1*%
%TO.N,Net-(D10-Pad2)*%
%TA.AperFunction,SMDPad,CuDef*%
G36*
G01*
X75890000Y-83525000D02*
X75890000Y-83025000D01*
G75*
G02*
X76115000Y-82800000I225000J0D01*
G01*
X76565000Y-82800000D01*
G75*
G02*
X76790000Y-83025000I0J-225000D01*
G01*
X76790000Y-83525000D01*
G75*
G02*
X76565000Y-83750000I-225000J0D01*
G01*
X76115000Y-83750000D01*
G75*
G02*
X75890000Y-83525000I0J225000D01*
G01*
G37*
%TD.AperFunction*%
%TO.P,R7,2*%
%TO.N,Net-(D8-Pad1)*%
%TA.AperFunction,SMDPad,CuDef*%
G36*
G01*
X77440000Y-83525000D02*
X77440000Y-83025000D01*
G75*
G02*
X77665000Y-82800000I225000J0D01*
G01*
X78115000Y-82800000D01*
G75*
G02*
X78340000Y-83025000I0J-225000D01*
G01*
X78340000Y-83525000D01*
G75*
G02*
X78115000Y-83750000I-225000J0D01*
G01*
X77665000Y-83750000D01*
G75*
G02*
X77440000Y-83525000I0J225000D01*
G01*
G37*
%TD.AperFunction*%
%TD*%
%TO.P,R8,1*%
%TO.N,Net-(R5-Pad1)*%
%TA.AperFunction,SMDPad,CuDef*%
G36*
G01*
X91115000Y-58930000D02*
X90615000Y-58930000D01*
G75*
G02*
X90390000Y-58705000I0J225000D01*
G01*
X90390000Y-58255000D01*
G75*
G02*
X90615000Y-58030000I225000J0D01*
G01*
X91115000Y-58030000D01*
G75*
G02*
X91340000Y-58255000I0J-225000D01*
G01*
X91340000Y-58705000D01*
G75*
G02*
X91115000Y-58930000I-225000J0D01*
G01*
G37*
%TD.AperFunction*%
%TO.P,R8,2*%
%TO.N,Net-(C5-Pad1)*%
%TA.AperFunction,SMDPad,CuDef*%
G36*
G01*
X91115000Y-57380000D02*
X90615000Y-57380000D01*
G75*
G02*
X90390000Y-57155000I0J225000D01*
G01*
X90390000Y-56705000D01*
G75*
G02*
X90615000Y-56480000I225000J0D01*
G01*
X91115000Y-56480000D01*
G75*
G02*
X91340000Y-56705000I0J-225000D01*
G01*
X91340000Y-57155000D01*
G75*
G02*
X91115000Y-57380000I-225000J0D01*
G01*
G37*
%TD.AperFunction*%
%TD*%
%TO.P,R9,1*%
%TO.N,Net-(D10-Pad2)*%
%TA.AperFunction,SMDPad,CuDef*%
G36*
G01*
X79560000Y-49755000D02*
X79560000Y-49255000D01*
G75*
G02*
X79785000Y-49030000I225000J0D01*
G01*
X80235000Y-49030000D01*
G75*
G02*
X80460000Y-49255000I0J-225000D01*
G01*
X80460000Y-49755000D01*
G75*
G02*
X80235000Y-49980000I-225000J0D01*
G01*
X79785000Y-49980000D01*
G75*
G02*
X79560000Y-49755000I0J225000D01*
G01*
G37*
%TD.AperFunction*%
%TO.P,R9,2*%
%TO.N,GND*%
%TA.AperFunction,SMDPad,CuDef*%
G36*
G01*
X81110000Y-49755000D02*
X81110000Y-49255000D01*
G75*
G02*
X81335000Y-49030000I225000J0D01*
G01*
X81785000Y-49030000D01*
G75*
G02*
X82010000Y-49255000I0J-225000D01*
G01*
X82010000Y-49755000D01*
G75*
G02*
X81785000Y-49980000I-225000J0D01*
G01*
X81335000Y-49980000D01*
G75*
G02*
X81110000Y-49755000I0J225000D01*
G01*
G37*
%TD.AperFunction*%
%TD*%
%TO.P,R10,1*%
%TO.N,Net-(R10-Pad1)*%
%TA.AperFunction,SMDPad,CuDef*%
G36*
G01*
X79850000Y-66290000D02*
X79850000Y-65790000D01*
G75*
G02*
X80075000Y-65565000I225000J0D01*
G01*
X80525000Y-65565000D01*
G75*
G02*
X80750000Y-65790000I0J-225000D01*
G01*
X80750000Y-66290000D01*
G75*
G02*
X80525000Y-66515000I-225000J0D01*
G01*
X80075000Y-66515000D01*
G75*
G02*
X79850000Y-66290000I0J225000D01*
G01*
G37*
%TD.AperFunction*%
%TO.P,R10,2*%
%TO.N,Net-(C5-Pad1)*%
%TA.AperFunction,SMDPad,CuDef*%
G36*
G01*
X81400000Y-66290000D02*
X81400000Y-65790000D01*
G75*
G02*
X81625000Y-65565000I225000J0D01*
G01*
X82075000Y-65565000D01*
G75*
G02*
X82300000Y-65790000I0J-225000D01*
G01*
X82300000Y-66290000D01*
G75*
G02*
X82075000Y-66515000I-225000J0D01*
G01*
X81625000Y-66515000D01*
G75*
G02*
X81400000Y-66290000I0J225000D01*
G01*
G37*
%TD.AperFunction*%
%TD*%
%TO.P,R11,2*%
%TO.N,Net-(C6-Pad1)*%
%TA.AperFunction,SMDPad,CuDef*%
G36*
G01*
X93625000Y-57380000D02*
X93125000Y-57380000D01*
G75*
G02*
X92900000Y-57155000I0J225000D01*
G01*
X92900000Y-56705000D01*
G75*
G02*
X93125000Y-56480000I225000J0D01*
G01*
X93625000Y-56480000D01*
G75*
G02*
X93850000Y-56705000I0J-225000D01*
G01*
X93850000Y-57155000D01*
G75*
G02*
X93625000Y-57380000I-225000J0D01*
G01*
G37*
%TD.AperFunction*%
%TO.P,R11,1*%
%TO.N,VCC*%
%TA.AperFunction,SMDPad,CuDef*%
G36*
G01*
X93625000Y-58930000D02*
X93125000Y-58930000D01*
G75*
G02*
X92900000Y-58705000I0J225000D01*
G01*
X92900000Y-58255000D01*
G75*
G02*
X93125000Y-58030000I225000J0D01*
G01*
X93625000Y-58030000D01*
G75*
G02*
X93850000Y-58255000I0J-225000D01*
G01*
X93850000Y-58705000D01*
G75*
G02*
X93625000Y-58930000I-225000J0D01*
G01*
G37*
%TD.AperFunction*%
%TD*%
%TO.P,R12,2*%
%TO.N,Net-(R12-Pad2)*%
%TA.AperFunction,SMDPad,CuDef*%
G36*
G01*
X73465000Y-75910000D02*
X72965000Y-75910000D01*
G75*
G02*
X72740000Y-75685000I0J225000D01*
G01*
X72740000Y-75235000D01*
G75*
G02*
X72965000Y-75010000I225000J0D01*
G01*
X73465000Y-75010000D01*
G75*
G02*
X73690000Y-75235000I0J-225000D01*
G01*
X73690000Y-75685000D01*
G75*
G02*
X73465000Y-75910000I-225000J0D01*
G01*
G37*
%TD.AperFunction*%
%TO.P,R12,1*%
%TO.N,Net-(R10-Pad1)*%
%TA.AperFunction,SMDPad,CuDef*%
G36*
G01*
X73465000Y-77460000D02*
X72965000Y-77460000D01*
G75*
G02*
X72740000Y-77235000I0J225000D01*
G01*
X72740000Y-76785000D01*
G75*
G02*
X72965000Y-76560000I225000J0D01*
G01*
X73465000Y-76560000D01*
G75*
G02*
X73690000Y-76785000I0J-225000D01*
G01*
X73690000Y-77235000D01*
G75*
G02*
X73465000Y-77460000I-225000J0D01*
G01*
G37*
%TD.AperFunction*%
%TD*%
D14*
%TO.P,U1,1*%
%TO.N,Net-(R5-Pad1)*%
X69325000Y-33325000D03*
D15*
%TO.P,U1,9*%
%TO.N,GND*%
X76945000Y-51105000D03*
%TO.P,U1,2*%
%TO.N,Net-(R10-Pad1)*%
X69325000Y-35865000D03*
%TO.P,U1,10*%
%TO.N,Net-(U1-Pad10)*%
X76945000Y-48565000D03*
%TO.P,U1,3*%
%TO.N,Net-(R12-Pad2)*%
X69325000Y-38405000D03*
%TO.P,U1,11*%
%TO.N,Net-(U1-Pad11)*%
X76945000Y-46025000D03*
%TO.P,U1,4*%
%TO.N,Net-(C5-Pad1)*%
X69325000Y-40945000D03*
%TO.P,U1,12*%
%TO.N,GND*%
X76945000Y-43485000D03*
%TO.P,U1,5*%
%TO.N,Net-(D10-Pad2)*%
X69325000Y-43485000D03*
%TO.P,U1,13*%
%TO.N,Net-(U1-Pad13)*%
X76945000Y-40945000D03*
%TO.P,U1,6*%
%TO.N,Net-(C6-Pad1)*%
X69325000Y-46025000D03*
%TO.P,U1,14*%
%TO.N,Net-(U1-Pad14)*%
X76945000Y-38405000D03*
%TO.P,U1,7*%
%TO.N,Net-(U1-Pad7)*%
X69325000Y-48565000D03*
%TO.P,U1,15*%
%TO.N,Net-(U1-Pad15)*%
X76945000Y-35865000D03*
%TO.P,U1,8*%
%TO.N,GND*%
X69325000Y-51105000D03*
%TO.P,U1,16*%
%TO.N,VCC*%
X76945000Y-33325000D03*
%TD*%
D16*
%TO.P,U2,1*%
%TO.N,VCC*%
X40280000Y-39860000D03*
D17*
%TO.P,U2,2*%
%TO.N,Net-(U2-Pad2)*%
X40280000Y-42400000D03*
%TO.P,U2,19*%
%TO.N,Net-(U2-Pad19)*%
X40280000Y-85580000D03*
%TO.P,U2,3*%
%TO.N,Net-(U2-Pad3)*%
X40280000Y-44940000D03*
%TO.P,U2,4*%
%TO.N,Net-(U2-Pad4)*%
X40280000Y-47480000D03*
%TO.P,U2,5*%
%TO.N,Net-(U1-Pad7)*%
X40280000Y-50020000D03*
%TO.P,U2,6*%
%TO.N,Net-(U1-Pad15)*%
X40280000Y-52560000D03*
%TO.P,U2,7*%
%TO.N,Net-(U2-Pad7)*%
X40280000Y-55100000D03*
%TO.P,U2,8*%
%TO.N,Net-(U1-Pad13)*%
X40280000Y-57640000D03*
%TO.P,U2,9*%
%TO.N,Net-(U1-Pad14)*%
X40280000Y-60180000D03*
%TO.P,U2,10*%
%TO.N,Net-(U2-Pad10)*%
X40280000Y-62720000D03*
%TO.P,U2,11*%
%TO.N,Net-(U2-Pad11)*%
X40280000Y-65260000D03*
%TO.P,U2,12*%
%TO.N,Net-(U2-Pad12)*%
X40280000Y-67800000D03*
%TO.P,U2,13*%
%TO.N,Net-(U2-Pad13)*%
X40280000Y-70340000D03*
%TO.P,U2,14*%
%TO.N,Net-(U2-Pad14)*%
X40280000Y-72880000D03*
%TO.P,U2,15*%
%TO.N,Net-(U2-Pad15)*%
X40280000Y-75420000D03*
%TO.P,U2,16*%
%TO.N,Net-(U2-Pad16)*%
X40280000Y-77960000D03*
%TO.P,U2,17*%
%TO.N,Net-(U2-Pad17)*%
X40280000Y-80500000D03*
%TO.P,U2,18*%
%TO.N,Net-(U2-Pad18)*%
X40280000Y-83040000D03*
%TO.P,U2,20*%
%TO.N,GND*%
X65680000Y-39860000D03*
%TO.P,U2,21*%
%TO.N,Net-(U2-Pad21)*%
X65680000Y-42400000D03*
%TO.P,U2,22*%
%TO.N,Net-(U2-Pad22)*%
X65680000Y-44940000D03*
%TO.P,U2,23*%
%TO.N,Net-(U2-Pad23)*%
X65680000Y-47480000D03*
%TO.P,U2,24*%
%TO.N,Net-(U2-Pad24)*%
X65680000Y-50020000D03*
%TO.P,U2,25*%
%TO.N,Net-(U2-Pad25)*%
X65680000Y-52560000D03*
%TO.P,U2,26*%
%TO.N,Net-(U2-Pad26)*%
X65680000Y-55100000D03*
%TO.P,U2,27*%
%TO.N,Net-(U2-Pad27)*%
X65680000Y-57640000D03*
%TO.P,U2,28*%
%TO.N,Net-(U2-Pad28)*%
X65680000Y-60180000D03*
%TO.P,U2,29*%
%TO.N,Net-(U2-Pad29)*%
X65680000Y-62720000D03*
%TO.P,U2,30*%
%TO.N,Net-(U2-Pad30)*%
X65680000Y-65260000D03*
%TO.P,U2,31*%
%TO.N,Net-(U2-Pad31)*%
X65680000Y-67800000D03*
%TO.P,U2,32*%
%TO.N,Net-(U2-Pad32)*%
X65680000Y-70340000D03*
%TO.P,U2,33*%
%TO.N,Net-(U2-Pad33)*%
X65680000Y-72880000D03*
%TO.P,U2,34*%
%TO.N,Net-(U2-Pad34)*%
X65680000Y-75420000D03*
%TO.P,U2,35*%
%TO.N,Net-(U2-Pad35)*%
X65680000Y-77960000D03*
%TO.P,U2,36*%
%TO.N,Net-(U2-Pad36)*%
X65680000Y-80500000D03*
%TO.P,U2,37*%
%TO.N,Net-(U2-Pad37)*%
X65680000Y-83040000D03*
%TO.P,U2,38*%
%TO.N,Net-(U2-Pad38)*%
X65680000Y-85580000D03*
%TD*%
D18*
%TO.P,Y1,1*%
%TO.N,Net-(U1-Pad11)*%
X71825000Y-56475000D03*
%TO.P,Y1,2*%
%TO.N,Net-(U1-Pad10)*%
X76705000Y-56475000D03*
%TD*%
D19*
%TO.N,Net-(C2-Pad2)*%
X69405000Y-74348200D03*
%TO.N,Net-(C4-Pad1)*%
X69591600Y-72846200D03*
X84430300Y-51907100D03*
%TO.N,Net-(C5-Pad1)*%
X89171000Y-51520800D03*
X82680400Y-50697900D03*
%TO.N,VCC*%
X69405000Y-82250000D03*
X93375000Y-59855800D03*
%TO.N,Net-(R5-Pad1)*%
X89007800Y-50316600D03*
%TO.N,Net-(U1-Pad13)*%
X74061500Y-43009100D03*
%TD*%
D20*
%TO.N,Net-(C1-Pad2)*%
X92930000Y-32505000D02*
X93720800Y-33295800D01*
X93720800Y-33295800D02*
X93720800Y-55319100D01*
X93720800Y-55319100D02*
X92198700Y-56841200D01*
X92198700Y-56841200D02*
X92198700Y-68086400D01*
X92198700Y-68086400D02*
X87895100Y-72390000D01*
X87895100Y-72390000D02*
X87630000Y-72390000D01*
X77890000Y-80765000D02*
X77890000Y-79996700D01*
X77890000Y-79996700D02*
X83999500Y-73887200D01*
X83999500Y-73887200D02*
X86132800Y-73887200D01*
X86132800Y-73887200D02*
X87630000Y-72390000D01*
%TO.N,Net-(C1-Pad1)*%
X76340000Y-80765000D02*
X75930000Y-80765000D01*
X75930000Y-80765000D02*
X73215000Y-83480000D01*
%TO.N,Net-(C2-Pad1)*%
X91380000Y-35015000D02*
X91380000Y-36699600D01*
X91380000Y-36699600D02*
X86827900Y-41251700D01*
X86827900Y-41251700D02*
X86827900Y-42602900D01*
X86827900Y-42602900D02*
X89743100Y-45518100D01*
X89743100Y-45518100D02*
X89743100Y-47588500D01*
X89743100Y-47588500D02*
X87993600Y-49338000D01*
X87993600Y-49338000D02*
X87993600Y-56451400D01*
X87993600Y-56451400D02*
X87640000Y-56805000D01*
%TO.N,Net-(C2-Pad2)*%
X86360000Y-69850000D02*
X87149500Y-69850000D01*
X87149500Y-69850000D02*
X91691900Y-65307600D01*
X91691900Y-65307600D02*
X91691900Y-55903800D01*
X91691900Y-55903800D02*
X92930000Y-54665700D01*
X92930000Y-54665700D02*
X92930000Y-35015000D01*
X69405000Y-75460000D02*
X69405000Y-74348200D01*
%TO.N,Net-(C3-Pad1)*%
X85720000Y-66040000D02*
X84856700Y-65176700D01*
X84856700Y-65176700D02*
X84856700Y-56116600D01*
X84856700Y-56116600D02*
X87049300Y-53924000D01*
X87049300Y-53924000D02*
X87049300Y-47130100D01*
X87049300Y-47130100D02*
X86290100Y-46370900D01*
X86290100Y-46370900D02*
X86290100Y-37585100D01*
X86290100Y-37585100D02*
X91370200Y-32505000D01*
X91370200Y-32505000D02*
X91380000Y-32505000D01*
%TO.N,Net-(C4-Pad1)*%
X85370000Y-49530000D02*
X84430300Y-50469700D01*
X84430300Y-50469700D02*
X84430300Y-51907100D01*
X69405000Y-77010000D02*
X70207600Y-76207400D01*
X70207600Y-76207400D02*
X70207600Y-73462200D01*
X70207600Y-73462200D02*
X69591600Y-72846200D01*
%TO.N,GND*%
X90345000Y-53425000D02*
X90345000Y-51999700D01*
X90345000Y-51999700D02*
X90345000Y-45370300D01*
X90345000Y-45370300D02*
X88275000Y-43300300D01*
X79338800Y-44753400D02*
X79433600Y-44658600D01*
X79433600Y-44658600D02*
X81854100Y-44658600D01*
X81854100Y-44658600D02*
X86146600Y-48951100D01*
X86146600Y-48951100D02*
X86146600Y-50684300D01*
X86146600Y-50684300D02*
X85155700Y-51675200D01*
X85155700Y-51675200D02*
X85155700Y-53880400D01*
X85155700Y-53880400D02*
X84668000Y-54368100D01*
X84668000Y-54368100D02*
X84668000Y-54806500D01*
X84668000Y-54806500D02*
X83630000Y-55844500D01*
X83630000Y-55844500D02*
X83630000Y-56805000D01*
X79338800Y-44753400D02*
X79229600Y-44862600D01*
X79229600Y-44862600D02*
X79229600Y-47432200D01*
X79229600Y-47432200D02*
X81302400Y-49505000D01*
X78070300Y-43485000D02*
X79338800Y-44753400D01*
X76945000Y-43485000D02*
X78070300Y-43485000D01*
X78620300Y-66175000D02*
X79299300Y-66854000D01*
X79299300Y-66854000D02*
X82316300Y-66854000D01*
X82316300Y-66854000D02*
X83169300Y-66001000D01*
X83169300Y-66001000D02*
X83169300Y-57265700D01*
X83169300Y-57265700D02*
X83630000Y-56805000D01*
X81302400Y-49505000D02*
X79702400Y-51105000D01*
X79702400Y-51105000D02*
X76945000Y-51105000D01*
X81560000Y-49505000D02*
X81302400Y-49505000D01*
X69325000Y-52230300D02*
X67689500Y-53865800D01*
X67689500Y-53865800D02*
X67689500Y-77754500D01*
X67689500Y-77754500D02*
X69405000Y-79470000D01*
X69325000Y-51105000D02*
X69325000Y-52230300D01*
X69405000Y-85030000D02*
X68570800Y-84195800D01*
X68570800Y-84195800D02*
X68570800Y-80304200D01*
X68570800Y-80304200D02*
X69405000Y-79470000D01*
X88275000Y-41875000D02*
X88275000Y-43300300D01*
X77195000Y-70425000D02*
X77195000Y-68999700D01*
X77907700Y-66175000D02*
X77907700Y-68287000D01*
X77907700Y-68287000D02*
X77195000Y-68999700D01*
X77907700Y-66175000D02*
X78620300Y-66175000D01*
X77195000Y-66175000D02*
X77907700Y-66175000D01*
%TO.N,Net-(C5-Pad1)*%
X90865000Y-56930000D02*
X88894200Y-54959200D01*
X88894200Y-54959200D02*
X88894200Y-51797600D01*
X88894200Y-51797600D02*
X89171000Y-51520800D01*
X82680400Y-50697900D02*
X81282700Y-52095600D01*
X81282700Y-52095600D02*
X81282700Y-56007700D01*
X81282700Y-56007700D02*
X82080000Y-56805000D01*
X82080000Y-56805000D02*
X82370400Y-57095400D01*
X82370400Y-57095400D02*
X82370400Y-65519600D01*
X82370400Y-65519600D02*
X81850000Y-66040000D01*
%TO.N,Net-(C6-Pad1)*%
X93375000Y-56930000D02*
X94176700Y-57731700D01*
X94176700Y-57731700D02*
X94176700Y-69943400D01*
X94176700Y-69943400D02*
X82099900Y-82020200D01*
X82099900Y-82020200D02*
X75702700Y-82020200D01*
X75702700Y-82020200D02*
X74479900Y-83243000D01*
X74479900Y-83243000D02*
X74479900Y-85019300D01*
X74479900Y-85019300D02*
X73663900Y-85835300D01*
X73663900Y-85835300D02*
X72757300Y-85835300D01*
X72757300Y-85835300D02*
X70206300Y-83284300D01*
X70206300Y-83284300D02*
X70206300Y-81020000D01*
X69325000Y-46025000D02*
X70923500Y-47623500D01*
X70923500Y-47623500D02*
X70923500Y-55392500D01*
X70923500Y-55392500D02*
X70747400Y-55568600D01*
X70747400Y-55568600D02*
X70747400Y-59890100D01*
X70747400Y-59890100D02*
X71000300Y-60143000D01*
X71000300Y-60143000D02*
X71000300Y-63165000D01*
X71000300Y-63165000D02*
X69415700Y-64749600D01*
X69415700Y-64749600D02*
X68313700Y-64749600D01*
X68313700Y-64749600D02*
X68140900Y-64922400D01*
X68140900Y-64922400D02*
X68140900Y-77002500D01*
X68140900Y-77002500D02*
X69378400Y-78240000D01*
X69378400Y-78240000D02*
X69489200Y-78240000D01*
X69489200Y-78240000D02*
X70206300Y-78957100D01*
X70206300Y-78957100D02*
X70206300Y-81020000D01*
X70206300Y-81020000D02*
X69405000Y-81020000D01*
%TO.N,VCC*%
X69405000Y-83480000D02*
X69405000Y-82250000D01*
X80945000Y-61925000D02*
X80945000Y-60499700D01*
X80655000Y-47550300D02*
X80922200Y-47550300D01*
X80922200Y-47550300D02*
X82346400Y-48974500D01*
X82346400Y-48974500D02*
X82346400Y-50006100D01*
X82346400Y-50006100D02*
X80832400Y-51520100D01*
X80832400Y-51520100D02*
X80832400Y-60387100D01*
X80832400Y-60387100D02*
X80945000Y-60499700D01*
X80655000Y-46125000D02*
X80655000Y-47550300D01*
X93375000Y-58480000D02*
X93375000Y-59855800D01*
%TO.N,Net-(D2-Pad2)*%
X88275000Y-47550300D02*
X87543300Y-48282000D01*
X87543300Y-48282000D02*
X87543300Y-54066900D01*
X87543300Y-54066900D02*
X85311500Y-56298700D01*
X85311500Y-56298700D02*
X85311500Y-64333300D01*
X85311500Y-64333300D02*
X86922500Y-65944300D01*
X86922500Y-65944300D02*
X86922500Y-66090900D01*
X86922500Y-66090900D02*
X87695500Y-66863900D01*
X88275000Y-46125000D02*
X88275000Y-47550300D01*
X87695500Y-66863900D02*
X88851100Y-66863900D01*
X88851100Y-66863900D02*
X89675000Y-66040000D01*
X87695500Y-66863900D02*
X84905400Y-69654000D01*
X84905400Y-69654000D02*
X84905400Y-70785000D01*
X84905400Y-70785000D02*
X73440400Y-82250000D01*
X73440400Y-82250000D02*
X72413700Y-82250000D01*
X72413700Y-82250000D02*
X72413700Y-84228700D01*
X72413700Y-84228700D02*
X73215000Y-85030000D01*
X69575000Y-71850300D02*
X69648800Y-71850300D01*
X69648800Y-71850300D02*
X70752900Y-72954400D01*
X70752900Y-72954400D02*
X70752900Y-80589200D01*
X70752900Y-80589200D02*
X72413700Y-82250000D01*
X69575000Y-70425000D02*
X69575000Y-71850300D01*
%TO.N,Net-(D4-Pad2)*%
X73215000Y-79470000D02*
X71557600Y-77812600D01*
X71557600Y-77812600D02*
X71557600Y-69582900D01*
X71557600Y-69582900D02*
X69575000Y-67600300D01*
X88565000Y-61925000D02*
X88565000Y-60499700D01*
X88565000Y-60499700D02*
X86090000Y-58024700D01*
X86090000Y-58024700D02*
X86090000Y-56805000D01*
X69575000Y-66175000D02*
X69575000Y-67600300D01*
%TO.N,Net-(D6-Pad1)*%
X80655000Y-43300300D02*
X81132700Y-43300300D01*
X81132700Y-43300300D02*
X86598900Y-48766500D01*
X86598900Y-48766500D02*
X86598900Y-53711000D01*
X86598900Y-53711000D02*
X84406300Y-55903600D01*
X84406300Y-55903600D02*
X84406300Y-65803700D01*
X84406300Y-65803700D02*
X84170000Y-66040000D01*
X80655000Y-41875000D02*
X80655000Y-43300300D01*
%TO.N,Net-(D7-Pad1)*%
X82725000Y-53425000D02*
X82725000Y-51999700D01*
X82725000Y-51999700D02*
X83820000Y-50904700D01*
X83820000Y-50904700D02*
X83820000Y-49530000D01*
%TO.N,Net-(D8-Pad1)*%
X70466000Y-49943200D02*
X68862700Y-49943200D01*
X68862700Y-49943200D02*
X67238100Y-51567800D01*
X67238100Y-51567800D02*
X67238100Y-84161400D01*
X67238100Y-84161400D02*
X69362400Y-86285700D01*
X69362400Y-86285700D02*
X73944500Y-86285700D01*
X73944500Y-86285700D02*
X75089200Y-85141000D01*
X75089200Y-85141000D02*
X75089200Y-83270600D01*
X75089200Y-83270600D02*
X75889300Y-82470500D01*
X75889300Y-82470500D02*
X77085500Y-82470500D01*
X77085500Y-82470500D02*
X77890000Y-83275000D01*
X79229700Y-37625000D02*
X79229700Y-36556000D01*
X79229700Y-36556000D02*
X77268700Y-34595000D01*
X77268700Y-34595000D02*
X75272400Y-34595000D01*
X75272400Y-34595000D02*
X72838300Y-32160900D01*
X72838300Y-32160900D02*
X68418400Y-32160900D01*
X68418400Y-32160900D02*
X67710800Y-32868500D01*
X67710800Y-32868500D02*
X67710800Y-46048600D01*
X67710800Y-46048600D02*
X68957200Y-47295000D01*
X68957200Y-47295000D02*
X69686900Y-47295000D01*
X69686900Y-47295000D02*
X70466000Y-48074100D01*
X70466000Y-48074100D02*
X70466000Y-49943200D01*
X70466000Y-49943200D02*
X70466000Y-54987800D01*
X70466000Y-54987800D02*
X69575000Y-55878800D01*
X69575000Y-55878800D02*
X69575000Y-60499700D01*
X69575000Y-61925000D02*
X69575000Y-60499700D01*
X80655000Y-37625000D02*
X79229700Y-37625000D01*
%TO.N,Net-(D10-Pad2)*%
X88275000Y-33375000D02*
X86849700Y-33375000D01*
X78128200Y-40521400D02*
X79104300Y-39545300D01*
X79104300Y-39545300D02*
X81481100Y-39545300D01*
X81481100Y-39545300D02*
X86849700Y-34176700D01*
X86849700Y-34176700D02*
X86849700Y-33375000D01*
X80010000Y-49505000D02*
X78466300Y-47961300D01*
X78466300Y-47961300D02*
X78466200Y-47961300D01*
X78466200Y-47961300D02*
X78466200Y-45883600D01*
X78466200Y-45883600D02*
X77442900Y-44860300D01*
X77442900Y-44860300D02*
X76667600Y-44860300D01*
X76667600Y-44860300D02*
X75816500Y-44009200D01*
X75816500Y-44009200D02*
X75816500Y-42954300D01*
X75816500Y-42954300D02*
X76700500Y-42070300D01*
X76700500Y-42070300D02*
X77485500Y-42070300D01*
X77485500Y-42070300D02*
X78128200Y-41427600D01*
X78128200Y-41427600D02*
X78128200Y-40521400D01*
X69325000Y-42359700D02*
X69061600Y-42359700D01*
X69061600Y-42359700D02*
X68161100Y-41459200D01*
X68161100Y-41459200D02*
X68161100Y-35404500D01*
X68161100Y-35404500D02*
X68892100Y-34673500D01*
X68892100Y-34673500D02*
X70850300Y-34673500D01*
X70850300Y-34673500D02*
X75851800Y-39675000D01*
X75851800Y-39675000D02*
X77281800Y-39675000D01*
X77281800Y-39675000D02*
X78128200Y-40521400D01*
X76340000Y-83275000D02*
X77141300Y-84076300D01*
X77141300Y-84076300D02*
X80680700Y-84076300D01*
X80680700Y-84076300D02*
X94653000Y-70104000D01*
X94653000Y-70104000D02*
X94653000Y-32903900D01*
X94653000Y-32903900D02*
X93430600Y-31681500D01*
X93430600Y-31681500D02*
X90948400Y-31681500D01*
X90948400Y-31681500D02*
X89700300Y-32929600D01*
X89700300Y-32929600D02*
X89700300Y-33375000D01*
X69325000Y-43485000D02*
X69325000Y-42359700D01*
X88275000Y-33375000D02*
X89700300Y-33375000D01*
%TO.N,Net-(R5-Pad1)*%
X89007800Y-50316600D02*
X88443900Y-50880500D01*
X88443900Y-50880500D02*
X88443900Y-56558400D01*
X88443900Y-56558400D02*
X90365500Y-58480000D01*
X90365500Y-58480000D02*
X90365500Y-63799500D01*
X90365500Y-63799500D02*
X88125000Y-66040000D01*
X90365500Y-58480000D02*
X90865000Y-58480000D01*
%TO.N,Net-(R10-Pad1)*%
X69325000Y-36990300D02*
X69568100Y-36990300D01*
X69568100Y-36990300D02*
X73336200Y-40758400D01*
X73336200Y-40758400D02*
X73336200Y-43309500D01*
X73336200Y-43309500D02*
X73355400Y-43328700D01*
X73355400Y-43328700D02*
X73355400Y-60141300D01*
X73355400Y-60141300D02*
X77273700Y-64059600D01*
X77273700Y-64059600D02*
X74403200Y-66930100D01*
X74403200Y-66930100D02*
X74403200Y-75821800D01*
X74403200Y-75821800D02*
X73215000Y-77010000D01*
X77273700Y-64059600D02*
X79254100Y-66040000D01*
X79254100Y-66040000D02*
X80300000Y-66040000D01*
X73215000Y-81020000D02*
X74016300Y-80218700D01*
X74016300Y-80218700D02*
X74016300Y-77811300D01*
X74016300Y-77811300D02*
X73215000Y-77010000D01*
X69325000Y-35865000D02*
X69325000Y-36990300D01*
%TO.N,Net-(R12-Pad2)*%
X69325000Y-39530300D02*
X69606300Y-39530300D01*
X69606300Y-39530300D02*
X72885900Y-42809900D01*
X72885900Y-42809900D02*
X72885900Y-43496100D01*
X72885900Y-43496100D02*
X72905000Y-43515200D01*
X72905000Y-43515200D02*
X72905000Y-75150000D01*
X72905000Y-75150000D02*
X73215000Y-75460000D01*
X69325000Y-38405000D02*
X69325000Y-39530300D01*
%TO.N,Net-(U1-Pad10)*%
X76945000Y-48565000D02*
X76945000Y-49690300D01*
X76705000Y-56475000D02*
X75819700Y-55589700D01*
X75819700Y-55589700D02*
X75819700Y-50534200D01*
X75819700Y-50534200D02*
X76663600Y-49690300D01*
X76663600Y-49690300D02*
X76945000Y-49690300D01*
%TO.N,Net-(U1-Pad13)*%
X76945000Y-40945000D02*
X75819700Y-40945000D01*
X74061500Y-43009100D02*
X75819700Y-41250900D01*
X75819700Y-41250900D02*
X75819700Y-40945000D01*
%TO.N,Net-(U1-Pad7)*%
X69325000Y-48565000D02*
X68199700Y-48565000D01*
X40280000Y-50020000D02*
X41709300Y-48590700D01*
X41709300Y-48590700D02*
X68174000Y-48590700D01*
X68174000Y-48590700D02*
X68199700Y-48565000D01*
%TD*%
M02*
