%TF.GenerationSoftware,KiCad,Pcbnew,(5.1.10)-1*%
%TF.CreationDate,2021-06-22T20:16:26+08:00*%
%TF.ProjectId,sm8223,736d3832-3233-42e6-9b69-6361645f7063,rev?*%
%TF.SameCoordinates,Original*%
%TF.FileFunction,Legend,Top*%
%TF.FilePolarity,Positive*%
%FSLAX46Y46*%
G04 Gerber Fmt 4.6, Leading zero omitted, Abs format (unit mm)*
G04 Created by KiCad (PCBNEW (5.1.10)-1) date 2021-06-22 20:16:26*
%MOMM*%
%LPD*%
G01*
G04 APERTURE LIST*
%ADD10C,0.120000*%
%ADD11C,0.100000*%
%ADD12C,0.127000*%
%ADD13C,0.150000*%
%ADD14C,0.015000*%
G04 APERTURE END LIST*
D10*
%TO.C,C1*%
X76974420Y-80255000D02*
X77255580Y-80255000D01*
X76974420Y-81275000D02*
X77255580Y-81275000D01*
%TO.C,C2*%
X92014420Y-35525000D02*
X92295580Y-35525000D01*
X92014420Y-34505000D02*
X92295580Y-34505000D01*
%TO.C,C3*%
X92014420Y-31995000D02*
X92295580Y-31995000D01*
X92014420Y-33015000D02*
X92295580Y-33015000D01*
%TO.C,C4*%
X69915000Y-76375580D02*
X69915000Y-76094420D01*
X68895000Y-76375580D02*
X68895000Y-76094420D01*
%TO.C,C5*%
X82714420Y-56295000D02*
X82995580Y-56295000D01*
X82714420Y-57315000D02*
X82995580Y-57315000D01*
%TO.C,C6*%
X68895000Y-80385580D02*
X68895000Y-80104420D01*
X69915000Y-80385580D02*
X69915000Y-80104420D01*
%TO.C,C7*%
X69915000Y-84395580D02*
X69915000Y-84114420D01*
X68895000Y-84395580D02*
X68895000Y-84114420D01*
%TO.C,D2*%
X82525000Y-44655000D02*
X82525000Y-47595000D01*
X82765000Y-44655000D02*
X82765000Y-47595000D01*
X82645000Y-44655000D02*
X82645000Y-47595000D01*
X87185000Y-47595000D02*
X87185000Y-47465000D01*
X81745000Y-47595000D02*
X87185000Y-47595000D01*
X81745000Y-47465000D02*
X81745000Y-47595000D01*
X87185000Y-44655000D02*
X87185000Y-44785000D01*
X81745000Y-44655000D02*
X87185000Y-44655000D01*
X81745000Y-44785000D02*
X81745000Y-44655000D01*
%TO.C,D3*%
X70665000Y-69085000D02*
X70665000Y-68955000D01*
X70665000Y-68955000D02*
X76105000Y-68955000D01*
X76105000Y-68955000D02*
X76105000Y-69085000D01*
X70665000Y-71765000D02*
X70665000Y-71895000D01*
X70665000Y-71895000D02*
X76105000Y-71895000D01*
X76105000Y-71895000D02*
X76105000Y-71765000D01*
X71565000Y-68955000D02*
X71565000Y-71895000D01*
X71685000Y-68955000D02*
X71685000Y-71895000D01*
X71445000Y-68955000D02*
X71445000Y-71895000D01*
%TO.C,D4*%
X82815000Y-60455000D02*
X82815000Y-63395000D01*
X83055000Y-60455000D02*
X83055000Y-63395000D01*
X82935000Y-60455000D02*
X82935000Y-63395000D01*
X87475000Y-63395000D02*
X87475000Y-63265000D01*
X82035000Y-63395000D02*
X87475000Y-63395000D01*
X82035000Y-63265000D02*
X82035000Y-63395000D01*
X87475000Y-60455000D02*
X87475000Y-60585000D01*
X82035000Y-60455000D02*
X87475000Y-60455000D01*
X82035000Y-60585000D02*
X82035000Y-60455000D01*
%TO.C,D5*%
X70665000Y-64835000D02*
X70665000Y-64705000D01*
X70665000Y-64705000D02*
X76105000Y-64705000D01*
X76105000Y-64705000D02*
X76105000Y-64835000D01*
X70665000Y-67515000D02*
X70665000Y-67645000D01*
X70665000Y-67645000D02*
X76105000Y-67645000D01*
X76105000Y-67645000D02*
X76105000Y-67515000D01*
X71565000Y-64705000D02*
X71565000Y-67645000D01*
X71685000Y-64705000D02*
X71685000Y-67645000D01*
X71445000Y-64705000D02*
X71445000Y-67645000D01*
%TO.C,D6*%
X81745000Y-40535000D02*
X81745000Y-40405000D01*
X81745000Y-40405000D02*
X87185000Y-40405000D01*
X87185000Y-40405000D02*
X87185000Y-40535000D01*
X81745000Y-43215000D02*
X81745000Y-43345000D01*
X81745000Y-43345000D02*
X87185000Y-43345000D01*
X87185000Y-43345000D02*
X87185000Y-43215000D01*
X82645000Y-40405000D02*
X82645000Y-43345000D01*
X82765000Y-40405000D02*
X82765000Y-43345000D01*
X82525000Y-40405000D02*
X82525000Y-43345000D01*
%TO.C,D7*%
X84595000Y-51955000D02*
X84595000Y-54895000D01*
X84835000Y-51955000D02*
X84835000Y-54895000D01*
X84715000Y-51955000D02*
X84715000Y-54895000D01*
X89255000Y-54895000D02*
X89255000Y-54765000D01*
X83815000Y-54895000D02*
X89255000Y-54895000D01*
X83815000Y-54765000D02*
X83815000Y-54895000D01*
X89255000Y-51955000D02*
X89255000Y-52085000D01*
X83815000Y-51955000D02*
X89255000Y-51955000D01*
X83815000Y-52085000D02*
X83815000Y-51955000D01*
%TO.C,D8*%
X82525000Y-36155000D02*
X82525000Y-39095000D01*
X82765000Y-36155000D02*
X82765000Y-39095000D01*
X82645000Y-36155000D02*
X82645000Y-39095000D01*
X87185000Y-39095000D02*
X87185000Y-38965000D01*
X81745000Y-39095000D02*
X87185000Y-39095000D01*
X81745000Y-38965000D02*
X81745000Y-39095000D01*
X87185000Y-36155000D02*
X87185000Y-36285000D01*
X81745000Y-36155000D02*
X87185000Y-36155000D01*
X81745000Y-36285000D02*
X81745000Y-36155000D01*
%TO.C,D9*%
X70665000Y-60585000D02*
X70665000Y-60455000D01*
X70665000Y-60455000D02*
X76105000Y-60455000D01*
X76105000Y-60455000D02*
X76105000Y-60585000D01*
X70665000Y-63265000D02*
X70665000Y-63395000D01*
X70665000Y-63395000D02*
X76105000Y-63395000D01*
X76105000Y-63395000D02*
X76105000Y-63265000D01*
X71565000Y-60455000D02*
X71565000Y-63395000D01*
X71685000Y-60455000D02*
X71685000Y-63395000D01*
X71445000Y-60455000D02*
X71445000Y-63395000D01*
%TO.C,D10*%
X82525000Y-31905000D02*
X82525000Y-34845000D01*
X82765000Y-31905000D02*
X82765000Y-34845000D01*
X82645000Y-31905000D02*
X82645000Y-34845000D01*
X87185000Y-34845000D02*
X87185000Y-34715000D01*
X81745000Y-34845000D02*
X87185000Y-34845000D01*
X81745000Y-34715000D02*
X81745000Y-34845000D01*
X87185000Y-31905000D02*
X87185000Y-32035000D01*
X81745000Y-31905000D02*
X87185000Y-31905000D01*
X81745000Y-32035000D02*
X81745000Y-31905000D01*
%TO.C,J1*%
X80390000Y-68620000D02*
X93590000Y-68620000D01*
X93590000Y-68620000D02*
X93590000Y-77640000D01*
D11*
X93590000Y-86500000D02*
X93590000Y-86620000D01*
D10*
X93590000Y-86620000D02*
X93590000Y-79840000D01*
D11*
X93590000Y-86610000D02*
X93590000Y-86620000D01*
D10*
X93590000Y-86620000D02*
X80390000Y-86620000D01*
X80390000Y-86620000D02*
X80390000Y-79840000D01*
D11*
X80390000Y-77570000D02*
X80390000Y-77640000D01*
D10*
X80390000Y-77640000D02*
X80390000Y-68620000D01*
X79920000Y-70620000D02*
X79920000Y-69090000D01*
%TO.C,R1*%
X72705000Y-84395580D02*
X72705000Y-84114420D01*
X73725000Y-84395580D02*
X73725000Y-84114420D01*
%TO.C,R2*%
X86724420Y-57315000D02*
X87005580Y-57315000D01*
X86724420Y-56295000D02*
X87005580Y-56295000D01*
%TO.C,R3*%
X84804420Y-65530000D02*
X85085580Y-65530000D01*
X84804420Y-66550000D02*
X85085580Y-66550000D01*
%TO.C,R4*%
X84454420Y-50040000D02*
X84735580Y-50040000D01*
X84454420Y-49020000D02*
X84735580Y-49020000D01*
%TO.C,R5*%
X88759420Y-65530000D02*
X89040580Y-65530000D01*
X88759420Y-66550000D02*
X89040580Y-66550000D01*
%TO.C,R6*%
X73725000Y-80385580D02*
X73725000Y-80104420D01*
X72705000Y-80385580D02*
X72705000Y-80104420D01*
%TO.C,R7*%
X76974420Y-83785000D02*
X77255580Y-83785000D01*
X76974420Y-82765000D02*
X77255580Y-82765000D01*
%TO.C,R8*%
X91375000Y-57845580D02*
X91375000Y-57564420D01*
X90355000Y-57845580D02*
X90355000Y-57564420D01*
%TO.C,R9*%
X80644420Y-50015000D02*
X80925580Y-50015000D01*
X80644420Y-48995000D02*
X80925580Y-48995000D01*
%TO.C,R10*%
X80934420Y-66550000D02*
X81215580Y-66550000D01*
X80934420Y-65530000D02*
X81215580Y-65530000D01*
%TO.C,R11*%
X92865000Y-57845580D02*
X92865000Y-57564420D01*
X93885000Y-57845580D02*
X93885000Y-57564420D01*
%TO.C,R12*%
X72705000Y-76375580D02*
X72705000Y-76094420D01*
X73725000Y-76375580D02*
X73725000Y-76094420D01*
%TO.C,U1*%
X75785000Y-31995000D02*
X74135000Y-31995000D01*
X75785000Y-52435000D02*
X75785000Y-31995000D01*
X70485000Y-52435000D02*
X75785000Y-52435000D01*
X70485000Y-31995000D02*
X70485000Y-52435000D01*
X72135000Y-31995000D02*
X70485000Y-31995000D01*
X74135000Y-31995000D02*
G75*
G02*
X72135000Y-31995000I-1000000J0D01*
G01*
D12*
%TO.C,U2*%
X66930000Y-86870000D02*
X39030000Y-86870000D01*
X66930000Y-32470000D02*
X66930000Y-86870000D01*
X39030000Y-32470000D02*
X66930000Y-32470000D01*
X39030000Y-86870000D02*
X39030000Y-32470000D01*
D10*
%TO.C,Y1*%
X71065000Y-59000000D02*
X77465000Y-59000000D01*
X71065000Y-53950000D02*
X77465000Y-53950000D01*
X71065000Y-59000000D02*
G75*
G02*
X71065000Y-53950000I0J2525000D01*
G01*
X77465000Y-59000000D02*
G75*
G03*
X77465000Y-53950000I0J2525000D01*
G01*
%TO.C,C1*%
D13*
X76948333Y-79692142D02*
X76900714Y-79739761D01*
X76757857Y-79787380D01*
X76662619Y-79787380D01*
X76519761Y-79739761D01*
X76424523Y-79644523D01*
X76376904Y-79549285D01*
X76329285Y-79358809D01*
X76329285Y-79215952D01*
X76376904Y-79025476D01*
X76424523Y-78930238D01*
X76519761Y-78835000D01*
X76662619Y-78787380D01*
X76757857Y-78787380D01*
X76900714Y-78835000D01*
X76948333Y-78882619D01*
X77900714Y-79787380D02*
X77329285Y-79787380D01*
X77615000Y-79787380D02*
X77615000Y-78787380D01*
X77519761Y-78930238D01*
X77424523Y-79025476D01*
X77329285Y-79073095D01*
%TO.C,C2*%
X91988333Y-33942142D02*
X91940714Y-33989761D01*
X91797857Y-34037380D01*
X91702619Y-34037380D01*
X91559761Y-33989761D01*
X91464523Y-33894523D01*
X91416904Y-33799285D01*
X91369285Y-33608809D01*
X91369285Y-33465952D01*
X91416904Y-33275476D01*
X91464523Y-33180238D01*
X91559761Y-33085000D01*
X91702619Y-33037380D01*
X91797857Y-33037380D01*
X91940714Y-33085000D01*
X91988333Y-33132619D01*
X92369285Y-33132619D02*
X92416904Y-33085000D01*
X92512142Y-33037380D01*
X92750238Y-33037380D01*
X92845476Y-33085000D01*
X92893095Y-33132619D01*
X92940714Y-33227857D01*
X92940714Y-33323095D01*
X92893095Y-33465952D01*
X92321666Y-34037380D01*
X92940714Y-34037380D01*
%TO.C,C3*%
X91988333Y-31432142D02*
X91940714Y-31479761D01*
X91797857Y-31527380D01*
X91702619Y-31527380D01*
X91559761Y-31479761D01*
X91464523Y-31384523D01*
X91416904Y-31289285D01*
X91369285Y-31098809D01*
X91369285Y-30955952D01*
X91416904Y-30765476D01*
X91464523Y-30670238D01*
X91559761Y-30575000D01*
X91702619Y-30527380D01*
X91797857Y-30527380D01*
X91940714Y-30575000D01*
X91988333Y-30622619D01*
X92321666Y-30527380D02*
X92940714Y-30527380D01*
X92607380Y-30908333D01*
X92750238Y-30908333D01*
X92845476Y-30955952D01*
X92893095Y-31003571D01*
X92940714Y-31098809D01*
X92940714Y-31336904D01*
X92893095Y-31432142D01*
X92845476Y-31479761D01*
X92750238Y-31527380D01*
X92464523Y-31527380D01*
X92369285Y-31479761D01*
X92321666Y-31432142D01*
%TO.C,C4*%
X68332142Y-76401666D02*
X68379761Y-76449285D01*
X68427380Y-76592142D01*
X68427380Y-76687380D01*
X68379761Y-76830238D01*
X68284523Y-76925476D01*
X68189285Y-76973095D01*
X67998809Y-77020714D01*
X67855952Y-77020714D01*
X67665476Y-76973095D01*
X67570238Y-76925476D01*
X67475000Y-76830238D01*
X67427380Y-76687380D01*
X67427380Y-76592142D01*
X67475000Y-76449285D01*
X67522619Y-76401666D01*
X67760714Y-75544523D02*
X68427380Y-75544523D01*
X67379761Y-75782619D02*
X68094047Y-76020714D01*
X68094047Y-75401666D01*
%TO.C,C5*%
X82688333Y-55732142D02*
X82640714Y-55779761D01*
X82497857Y-55827380D01*
X82402619Y-55827380D01*
X82259761Y-55779761D01*
X82164523Y-55684523D01*
X82116904Y-55589285D01*
X82069285Y-55398809D01*
X82069285Y-55255952D01*
X82116904Y-55065476D01*
X82164523Y-54970238D01*
X82259761Y-54875000D01*
X82402619Y-54827380D01*
X82497857Y-54827380D01*
X82640714Y-54875000D01*
X82688333Y-54922619D01*
X83593095Y-54827380D02*
X83116904Y-54827380D01*
X83069285Y-55303571D01*
X83116904Y-55255952D01*
X83212142Y-55208333D01*
X83450238Y-55208333D01*
X83545476Y-55255952D01*
X83593095Y-55303571D01*
X83640714Y-55398809D01*
X83640714Y-55636904D01*
X83593095Y-55732142D01*
X83545476Y-55779761D01*
X83450238Y-55827380D01*
X83212142Y-55827380D01*
X83116904Y-55779761D01*
X83069285Y-55732142D01*
%TO.C,C6*%
X68332142Y-80411666D02*
X68379761Y-80459285D01*
X68427380Y-80602142D01*
X68427380Y-80697380D01*
X68379761Y-80840238D01*
X68284523Y-80935476D01*
X68189285Y-80983095D01*
X67998809Y-81030714D01*
X67855952Y-81030714D01*
X67665476Y-80983095D01*
X67570238Y-80935476D01*
X67475000Y-80840238D01*
X67427380Y-80697380D01*
X67427380Y-80602142D01*
X67475000Y-80459285D01*
X67522619Y-80411666D01*
X67427380Y-79554523D02*
X67427380Y-79745000D01*
X67475000Y-79840238D01*
X67522619Y-79887857D01*
X67665476Y-79983095D01*
X67855952Y-80030714D01*
X68236904Y-80030714D01*
X68332142Y-79983095D01*
X68379761Y-79935476D01*
X68427380Y-79840238D01*
X68427380Y-79649761D01*
X68379761Y-79554523D01*
X68332142Y-79506904D01*
X68236904Y-79459285D01*
X67998809Y-79459285D01*
X67903571Y-79506904D01*
X67855952Y-79554523D01*
X67808333Y-79649761D01*
X67808333Y-79840238D01*
X67855952Y-79935476D01*
X67903571Y-79983095D01*
X67998809Y-80030714D01*
%TO.C,C7*%
X68332142Y-84421666D02*
X68379761Y-84469285D01*
X68427380Y-84612142D01*
X68427380Y-84707380D01*
X68379761Y-84850238D01*
X68284523Y-84945476D01*
X68189285Y-84993095D01*
X67998809Y-85040714D01*
X67855952Y-85040714D01*
X67665476Y-84993095D01*
X67570238Y-84945476D01*
X67475000Y-84850238D01*
X67427380Y-84707380D01*
X67427380Y-84612142D01*
X67475000Y-84469285D01*
X67522619Y-84421666D01*
X67427380Y-84088333D02*
X67427380Y-83421666D01*
X68427380Y-83850238D01*
%TO.C,D2*%
X83726904Y-44107380D02*
X83726904Y-43107380D01*
X83965000Y-43107380D01*
X84107857Y-43155000D01*
X84203095Y-43250238D01*
X84250714Y-43345476D01*
X84298333Y-43535952D01*
X84298333Y-43678809D01*
X84250714Y-43869285D01*
X84203095Y-43964523D01*
X84107857Y-44059761D01*
X83965000Y-44107380D01*
X83726904Y-44107380D01*
X84679285Y-43202619D02*
X84726904Y-43155000D01*
X84822142Y-43107380D01*
X85060238Y-43107380D01*
X85155476Y-43155000D01*
X85203095Y-43202619D01*
X85250714Y-43297857D01*
X85250714Y-43393095D01*
X85203095Y-43535952D01*
X84631666Y-44107380D01*
X85250714Y-44107380D01*
X80393095Y-44477380D02*
X80393095Y-43477380D01*
X80964523Y-44477380D02*
X80535952Y-43905952D01*
X80964523Y-43477380D02*
X80393095Y-44048809D01*
%TO.C,D3*%
X72646904Y-68407380D02*
X72646904Y-67407380D01*
X72885000Y-67407380D01*
X73027857Y-67455000D01*
X73123095Y-67550238D01*
X73170714Y-67645476D01*
X73218333Y-67835952D01*
X73218333Y-67978809D01*
X73170714Y-68169285D01*
X73123095Y-68264523D01*
X73027857Y-68359761D01*
X72885000Y-68407380D01*
X72646904Y-68407380D01*
X73551666Y-67407380D02*
X74170714Y-67407380D01*
X73837380Y-67788333D01*
X73980238Y-67788333D01*
X74075476Y-67835952D01*
X74123095Y-67883571D01*
X74170714Y-67978809D01*
X74170714Y-68216904D01*
X74123095Y-68312142D01*
X74075476Y-68359761D01*
X73980238Y-68407380D01*
X73694523Y-68407380D01*
X73599285Y-68359761D01*
X73551666Y-68312142D01*
X69313095Y-68777380D02*
X69313095Y-67777380D01*
X69884523Y-68777380D02*
X69455952Y-68205952D01*
X69884523Y-67777380D02*
X69313095Y-68348809D01*
%TO.C,D4*%
X84016904Y-59907380D02*
X84016904Y-58907380D01*
X84255000Y-58907380D01*
X84397857Y-58955000D01*
X84493095Y-59050238D01*
X84540714Y-59145476D01*
X84588333Y-59335952D01*
X84588333Y-59478809D01*
X84540714Y-59669285D01*
X84493095Y-59764523D01*
X84397857Y-59859761D01*
X84255000Y-59907380D01*
X84016904Y-59907380D01*
X85445476Y-59240714D02*
X85445476Y-59907380D01*
X85207380Y-58859761D02*
X84969285Y-59574047D01*
X85588333Y-59574047D01*
X80683095Y-60277380D02*
X80683095Y-59277380D01*
X81254523Y-60277380D02*
X80825952Y-59705952D01*
X81254523Y-59277380D02*
X80683095Y-59848809D01*
%TO.C,D5*%
X72646904Y-64157380D02*
X72646904Y-63157380D01*
X72885000Y-63157380D01*
X73027857Y-63205000D01*
X73123095Y-63300238D01*
X73170714Y-63395476D01*
X73218333Y-63585952D01*
X73218333Y-63728809D01*
X73170714Y-63919285D01*
X73123095Y-64014523D01*
X73027857Y-64109761D01*
X72885000Y-64157380D01*
X72646904Y-64157380D01*
X74123095Y-63157380D02*
X73646904Y-63157380D01*
X73599285Y-63633571D01*
X73646904Y-63585952D01*
X73742142Y-63538333D01*
X73980238Y-63538333D01*
X74075476Y-63585952D01*
X74123095Y-63633571D01*
X74170714Y-63728809D01*
X74170714Y-63966904D01*
X74123095Y-64062142D01*
X74075476Y-64109761D01*
X73980238Y-64157380D01*
X73742142Y-64157380D01*
X73646904Y-64109761D01*
X73599285Y-64062142D01*
X69313095Y-64527380D02*
X69313095Y-63527380D01*
X69884523Y-64527380D02*
X69455952Y-63955952D01*
X69884523Y-63527380D02*
X69313095Y-64098809D01*
%TO.C,D6*%
X83726904Y-39857380D02*
X83726904Y-38857380D01*
X83965000Y-38857380D01*
X84107857Y-38905000D01*
X84203095Y-39000238D01*
X84250714Y-39095476D01*
X84298333Y-39285952D01*
X84298333Y-39428809D01*
X84250714Y-39619285D01*
X84203095Y-39714523D01*
X84107857Y-39809761D01*
X83965000Y-39857380D01*
X83726904Y-39857380D01*
X85155476Y-38857380D02*
X84965000Y-38857380D01*
X84869761Y-38905000D01*
X84822142Y-38952619D01*
X84726904Y-39095476D01*
X84679285Y-39285952D01*
X84679285Y-39666904D01*
X84726904Y-39762142D01*
X84774523Y-39809761D01*
X84869761Y-39857380D01*
X85060238Y-39857380D01*
X85155476Y-39809761D01*
X85203095Y-39762142D01*
X85250714Y-39666904D01*
X85250714Y-39428809D01*
X85203095Y-39333571D01*
X85155476Y-39285952D01*
X85060238Y-39238333D01*
X84869761Y-39238333D01*
X84774523Y-39285952D01*
X84726904Y-39333571D01*
X84679285Y-39428809D01*
X80393095Y-40227380D02*
X80393095Y-39227380D01*
X80964523Y-40227380D02*
X80535952Y-39655952D01*
X80964523Y-39227380D02*
X80393095Y-39798809D01*
%TO.C,D7*%
X85796904Y-51407380D02*
X85796904Y-50407380D01*
X86035000Y-50407380D01*
X86177857Y-50455000D01*
X86273095Y-50550238D01*
X86320714Y-50645476D01*
X86368333Y-50835952D01*
X86368333Y-50978809D01*
X86320714Y-51169285D01*
X86273095Y-51264523D01*
X86177857Y-51359761D01*
X86035000Y-51407380D01*
X85796904Y-51407380D01*
X86701666Y-50407380D02*
X87368333Y-50407380D01*
X86939761Y-51407380D01*
X82463095Y-51777380D02*
X82463095Y-50777380D01*
X83034523Y-51777380D02*
X82605952Y-51205952D01*
X83034523Y-50777380D02*
X82463095Y-51348809D01*
%TO.C,D8*%
X83726904Y-35607380D02*
X83726904Y-34607380D01*
X83965000Y-34607380D01*
X84107857Y-34655000D01*
X84203095Y-34750238D01*
X84250714Y-34845476D01*
X84298333Y-35035952D01*
X84298333Y-35178809D01*
X84250714Y-35369285D01*
X84203095Y-35464523D01*
X84107857Y-35559761D01*
X83965000Y-35607380D01*
X83726904Y-35607380D01*
X84869761Y-35035952D02*
X84774523Y-34988333D01*
X84726904Y-34940714D01*
X84679285Y-34845476D01*
X84679285Y-34797857D01*
X84726904Y-34702619D01*
X84774523Y-34655000D01*
X84869761Y-34607380D01*
X85060238Y-34607380D01*
X85155476Y-34655000D01*
X85203095Y-34702619D01*
X85250714Y-34797857D01*
X85250714Y-34845476D01*
X85203095Y-34940714D01*
X85155476Y-34988333D01*
X85060238Y-35035952D01*
X84869761Y-35035952D01*
X84774523Y-35083571D01*
X84726904Y-35131190D01*
X84679285Y-35226428D01*
X84679285Y-35416904D01*
X84726904Y-35512142D01*
X84774523Y-35559761D01*
X84869761Y-35607380D01*
X85060238Y-35607380D01*
X85155476Y-35559761D01*
X85203095Y-35512142D01*
X85250714Y-35416904D01*
X85250714Y-35226428D01*
X85203095Y-35131190D01*
X85155476Y-35083571D01*
X85060238Y-35035952D01*
X80393095Y-35977380D02*
X80393095Y-34977380D01*
X80964523Y-35977380D02*
X80535952Y-35405952D01*
X80964523Y-34977380D02*
X80393095Y-35548809D01*
%TO.C,D9*%
X72646904Y-59907380D02*
X72646904Y-58907380D01*
X72885000Y-58907380D01*
X73027857Y-58955000D01*
X73123095Y-59050238D01*
X73170714Y-59145476D01*
X73218333Y-59335952D01*
X73218333Y-59478809D01*
X73170714Y-59669285D01*
X73123095Y-59764523D01*
X73027857Y-59859761D01*
X72885000Y-59907380D01*
X72646904Y-59907380D01*
X73694523Y-59907380D02*
X73885000Y-59907380D01*
X73980238Y-59859761D01*
X74027857Y-59812142D01*
X74123095Y-59669285D01*
X74170714Y-59478809D01*
X74170714Y-59097857D01*
X74123095Y-59002619D01*
X74075476Y-58955000D01*
X73980238Y-58907380D01*
X73789761Y-58907380D01*
X73694523Y-58955000D01*
X73646904Y-59002619D01*
X73599285Y-59097857D01*
X73599285Y-59335952D01*
X73646904Y-59431190D01*
X73694523Y-59478809D01*
X73789761Y-59526428D01*
X73980238Y-59526428D01*
X74075476Y-59478809D01*
X74123095Y-59431190D01*
X74170714Y-59335952D01*
X69313095Y-60277380D02*
X69313095Y-59277380D01*
X69884523Y-60277380D02*
X69455952Y-59705952D01*
X69884523Y-59277380D02*
X69313095Y-59848809D01*
%TO.C,D10*%
X83250714Y-31357380D02*
X83250714Y-30357380D01*
X83488809Y-30357380D01*
X83631666Y-30405000D01*
X83726904Y-30500238D01*
X83774523Y-30595476D01*
X83822142Y-30785952D01*
X83822142Y-30928809D01*
X83774523Y-31119285D01*
X83726904Y-31214523D01*
X83631666Y-31309761D01*
X83488809Y-31357380D01*
X83250714Y-31357380D01*
X84774523Y-31357380D02*
X84203095Y-31357380D01*
X84488809Y-31357380D02*
X84488809Y-30357380D01*
X84393571Y-30500238D01*
X84298333Y-30595476D01*
X84203095Y-30643095D01*
X85393571Y-30357380D02*
X85488809Y-30357380D01*
X85584047Y-30405000D01*
X85631666Y-30452619D01*
X85679285Y-30547857D01*
X85726904Y-30738333D01*
X85726904Y-30976428D01*
X85679285Y-31166904D01*
X85631666Y-31262142D01*
X85584047Y-31309761D01*
X85488809Y-31357380D01*
X85393571Y-31357380D01*
X85298333Y-31309761D01*
X85250714Y-31262142D01*
X85203095Y-31166904D01*
X85155476Y-30976428D01*
X85155476Y-30738333D01*
X85203095Y-30547857D01*
X85250714Y-30452619D01*
X85298333Y-30405000D01*
X85393571Y-30357380D01*
X80393095Y-31727380D02*
X80393095Y-30727380D01*
X80964523Y-31727380D02*
X80535952Y-31155952D01*
X80964523Y-30727380D02*
X80393095Y-31298809D01*
%TO.C,J1*%
X92376666Y-67142380D02*
X92376666Y-67856666D01*
X92329047Y-67999523D01*
X92233809Y-68094761D01*
X92090952Y-68142380D01*
X91995714Y-68142380D01*
X93376666Y-68142380D02*
X92805238Y-68142380D01*
X93090952Y-68142380D02*
X93090952Y-67142380D01*
X92995714Y-67285238D01*
X92900476Y-67380476D01*
X92805238Y-67428095D01*
%TO.C,R1*%
X72237380Y-84421666D02*
X71761190Y-84755000D01*
X72237380Y-84993095D02*
X71237380Y-84993095D01*
X71237380Y-84612142D01*
X71285000Y-84516904D01*
X71332619Y-84469285D01*
X71427857Y-84421666D01*
X71570714Y-84421666D01*
X71665952Y-84469285D01*
X71713571Y-84516904D01*
X71761190Y-84612142D01*
X71761190Y-84993095D01*
X72237380Y-83469285D02*
X72237380Y-84040714D01*
X72237380Y-83755000D02*
X71237380Y-83755000D01*
X71380238Y-83850238D01*
X71475476Y-83945476D01*
X71523095Y-84040714D01*
%TO.C,R2*%
X86698333Y-55827380D02*
X86365000Y-55351190D01*
X86126904Y-55827380D02*
X86126904Y-54827380D01*
X86507857Y-54827380D01*
X86603095Y-54875000D01*
X86650714Y-54922619D01*
X86698333Y-55017857D01*
X86698333Y-55160714D01*
X86650714Y-55255952D01*
X86603095Y-55303571D01*
X86507857Y-55351190D01*
X86126904Y-55351190D01*
X87079285Y-54922619D02*
X87126904Y-54875000D01*
X87222142Y-54827380D01*
X87460238Y-54827380D01*
X87555476Y-54875000D01*
X87603095Y-54922619D01*
X87650714Y-55017857D01*
X87650714Y-55113095D01*
X87603095Y-55255952D01*
X87031666Y-55827380D01*
X87650714Y-55827380D01*
%TO.C,R3*%
X84778333Y-65062380D02*
X84445000Y-64586190D01*
X84206904Y-65062380D02*
X84206904Y-64062380D01*
X84587857Y-64062380D01*
X84683095Y-64110000D01*
X84730714Y-64157619D01*
X84778333Y-64252857D01*
X84778333Y-64395714D01*
X84730714Y-64490952D01*
X84683095Y-64538571D01*
X84587857Y-64586190D01*
X84206904Y-64586190D01*
X85111666Y-64062380D02*
X85730714Y-64062380D01*
X85397380Y-64443333D01*
X85540238Y-64443333D01*
X85635476Y-64490952D01*
X85683095Y-64538571D01*
X85730714Y-64633809D01*
X85730714Y-64871904D01*
X85683095Y-64967142D01*
X85635476Y-65014761D01*
X85540238Y-65062380D01*
X85254523Y-65062380D01*
X85159285Y-65014761D01*
X85111666Y-64967142D01*
%TO.C,R4*%
X84428333Y-48552380D02*
X84095000Y-48076190D01*
X83856904Y-48552380D02*
X83856904Y-47552380D01*
X84237857Y-47552380D01*
X84333095Y-47600000D01*
X84380714Y-47647619D01*
X84428333Y-47742857D01*
X84428333Y-47885714D01*
X84380714Y-47980952D01*
X84333095Y-48028571D01*
X84237857Y-48076190D01*
X83856904Y-48076190D01*
X85285476Y-47885714D02*
X85285476Y-48552380D01*
X85047380Y-47504761D02*
X84809285Y-48219047D01*
X85428333Y-48219047D01*
%TO.C,R5*%
X88733333Y-65062380D02*
X88400000Y-64586190D01*
X88161904Y-65062380D02*
X88161904Y-64062380D01*
X88542857Y-64062380D01*
X88638095Y-64110000D01*
X88685714Y-64157619D01*
X88733333Y-64252857D01*
X88733333Y-64395714D01*
X88685714Y-64490952D01*
X88638095Y-64538571D01*
X88542857Y-64586190D01*
X88161904Y-64586190D01*
X89638095Y-64062380D02*
X89161904Y-64062380D01*
X89114285Y-64538571D01*
X89161904Y-64490952D01*
X89257142Y-64443333D01*
X89495238Y-64443333D01*
X89590476Y-64490952D01*
X89638095Y-64538571D01*
X89685714Y-64633809D01*
X89685714Y-64871904D01*
X89638095Y-64967142D01*
X89590476Y-65014761D01*
X89495238Y-65062380D01*
X89257142Y-65062380D01*
X89161904Y-65014761D01*
X89114285Y-64967142D01*
%TO.C,R6*%
X72237380Y-80411666D02*
X71761190Y-80745000D01*
X72237380Y-80983095D02*
X71237380Y-80983095D01*
X71237380Y-80602142D01*
X71285000Y-80506904D01*
X71332619Y-80459285D01*
X71427857Y-80411666D01*
X71570714Y-80411666D01*
X71665952Y-80459285D01*
X71713571Y-80506904D01*
X71761190Y-80602142D01*
X71761190Y-80983095D01*
X71237380Y-79554523D02*
X71237380Y-79745000D01*
X71285000Y-79840238D01*
X71332619Y-79887857D01*
X71475476Y-79983095D01*
X71665952Y-80030714D01*
X72046904Y-80030714D01*
X72142142Y-79983095D01*
X72189761Y-79935476D01*
X72237380Y-79840238D01*
X72237380Y-79649761D01*
X72189761Y-79554523D01*
X72142142Y-79506904D01*
X72046904Y-79459285D01*
X71808809Y-79459285D01*
X71713571Y-79506904D01*
X71665952Y-79554523D01*
X71618333Y-79649761D01*
X71618333Y-79840238D01*
X71665952Y-79935476D01*
X71713571Y-79983095D01*
X71808809Y-80030714D01*
%TO.C,R7*%
X76948333Y-82297380D02*
X76615000Y-81821190D01*
X76376904Y-82297380D02*
X76376904Y-81297380D01*
X76757857Y-81297380D01*
X76853095Y-81345000D01*
X76900714Y-81392619D01*
X76948333Y-81487857D01*
X76948333Y-81630714D01*
X76900714Y-81725952D01*
X76853095Y-81773571D01*
X76757857Y-81821190D01*
X76376904Y-81821190D01*
X77281666Y-81297380D02*
X77948333Y-81297380D01*
X77519761Y-82297380D01*
%TO.C,R8*%
X89887380Y-57871666D02*
X89411190Y-58205000D01*
X89887380Y-58443095D02*
X88887380Y-58443095D01*
X88887380Y-58062142D01*
X88935000Y-57966904D01*
X88982619Y-57919285D01*
X89077857Y-57871666D01*
X89220714Y-57871666D01*
X89315952Y-57919285D01*
X89363571Y-57966904D01*
X89411190Y-58062142D01*
X89411190Y-58443095D01*
X89315952Y-57300238D02*
X89268333Y-57395476D01*
X89220714Y-57443095D01*
X89125476Y-57490714D01*
X89077857Y-57490714D01*
X88982619Y-57443095D01*
X88935000Y-57395476D01*
X88887380Y-57300238D01*
X88887380Y-57109761D01*
X88935000Y-57014523D01*
X88982619Y-56966904D01*
X89077857Y-56919285D01*
X89125476Y-56919285D01*
X89220714Y-56966904D01*
X89268333Y-57014523D01*
X89315952Y-57109761D01*
X89315952Y-57300238D01*
X89363571Y-57395476D01*
X89411190Y-57443095D01*
X89506428Y-57490714D01*
X89696904Y-57490714D01*
X89792142Y-57443095D01*
X89839761Y-57395476D01*
X89887380Y-57300238D01*
X89887380Y-57109761D01*
X89839761Y-57014523D01*
X89792142Y-56966904D01*
X89696904Y-56919285D01*
X89506428Y-56919285D01*
X89411190Y-56966904D01*
X89363571Y-57014523D01*
X89315952Y-57109761D01*
%TO.C,R9*%
X80618333Y-48527380D02*
X80285000Y-48051190D01*
X80046904Y-48527380D02*
X80046904Y-47527380D01*
X80427857Y-47527380D01*
X80523095Y-47575000D01*
X80570714Y-47622619D01*
X80618333Y-47717857D01*
X80618333Y-47860714D01*
X80570714Y-47955952D01*
X80523095Y-48003571D01*
X80427857Y-48051190D01*
X80046904Y-48051190D01*
X81094523Y-48527380D02*
X81285000Y-48527380D01*
X81380238Y-48479761D01*
X81427857Y-48432142D01*
X81523095Y-48289285D01*
X81570714Y-48098809D01*
X81570714Y-47717857D01*
X81523095Y-47622619D01*
X81475476Y-47575000D01*
X81380238Y-47527380D01*
X81189761Y-47527380D01*
X81094523Y-47575000D01*
X81046904Y-47622619D01*
X80999285Y-47717857D01*
X80999285Y-47955952D01*
X81046904Y-48051190D01*
X81094523Y-48098809D01*
X81189761Y-48146428D01*
X81380238Y-48146428D01*
X81475476Y-48098809D01*
X81523095Y-48051190D01*
X81570714Y-47955952D01*
%TO.C,R10*%
X80432142Y-65062380D02*
X80098809Y-64586190D01*
X79860714Y-65062380D02*
X79860714Y-64062380D01*
X80241666Y-64062380D01*
X80336904Y-64110000D01*
X80384523Y-64157619D01*
X80432142Y-64252857D01*
X80432142Y-64395714D01*
X80384523Y-64490952D01*
X80336904Y-64538571D01*
X80241666Y-64586190D01*
X79860714Y-64586190D01*
X81384523Y-65062380D02*
X80813095Y-65062380D01*
X81098809Y-65062380D02*
X81098809Y-64062380D01*
X81003571Y-64205238D01*
X80908333Y-64300476D01*
X80813095Y-64348095D01*
X82003571Y-64062380D02*
X82098809Y-64062380D01*
X82194047Y-64110000D01*
X82241666Y-64157619D01*
X82289285Y-64252857D01*
X82336904Y-64443333D01*
X82336904Y-64681428D01*
X82289285Y-64871904D01*
X82241666Y-64967142D01*
X82194047Y-65014761D01*
X82098809Y-65062380D01*
X82003571Y-65062380D01*
X81908333Y-65014761D01*
X81860714Y-64967142D01*
X81813095Y-64871904D01*
X81765476Y-64681428D01*
X81765476Y-64443333D01*
X81813095Y-64252857D01*
X81860714Y-64157619D01*
X81908333Y-64110000D01*
X82003571Y-64062380D01*
%TO.C,R11*%
X92397380Y-58347857D02*
X91921190Y-58681190D01*
X92397380Y-58919285D02*
X91397380Y-58919285D01*
X91397380Y-58538333D01*
X91445000Y-58443095D01*
X91492619Y-58395476D01*
X91587857Y-58347857D01*
X91730714Y-58347857D01*
X91825952Y-58395476D01*
X91873571Y-58443095D01*
X91921190Y-58538333D01*
X91921190Y-58919285D01*
X92397380Y-57395476D02*
X92397380Y-57966904D01*
X92397380Y-57681190D02*
X91397380Y-57681190D01*
X91540238Y-57776428D01*
X91635476Y-57871666D01*
X91683095Y-57966904D01*
X92397380Y-56443095D02*
X92397380Y-57014523D01*
X92397380Y-56728809D02*
X91397380Y-56728809D01*
X91540238Y-56824047D01*
X91635476Y-56919285D01*
X91683095Y-57014523D01*
%TO.C,R12*%
X72237380Y-76877857D02*
X71761190Y-77211190D01*
X72237380Y-77449285D02*
X71237380Y-77449285D01*
X71237380Y-77068333D01*
X71285000Y-76973095D01*
X71332619Y-76925476D01*
X71427857Y-76877857D01*
X71570714Y-76877857D01*
X71665952Y-76925476D01*
X71713571Y-76973095D01*
X71761190Y-77068333D01*
X71761190Y-77449285D01*
X72237380Y-75925476D02*
X72237380Y-76496904D01*
X72237380Y-76211190D02*
X71237380Y-76211190D01*
X71380238Y-76306428D01*
X71475476Y-76401666D01*
X71523095Y-76496904D01*
X71332619Y-75544523D02*
X71285000Y-75496904D01*
X71237380Y-75401666D01*
X71237380Y-75163571D01*
X71285000Y-75068333D01*
X71332619Y-75020714D01*
X71427857Y-74973095D01*
X71523095Y-74973095D01*
X71665952Y-75020714D01*
X72237380Y-75592142D01*
X72237380Y-74973095D01*
%TO.C,U1*%
X72373095Y-30447380D02*
X72373095Y-31256904D01*
X72420714Y-31352142D01*
X72468333Y-31399761D01*
X72563571Y-31447380D01*
X72754047Y-31447380D01*
X72849285Y-31399761D01*
X72896904Y-31352142D01*
X72944523Y-31256904D01*
X72944523Y-30447380D01*
X73944523Y-31447380D02*
X73373095Y-31447380D01*
X73658809Y-31447380D02*
X73658809Y-30447380D01*
X73563571Y-30590238D01*
X73468333Y-30685476D01*
X73373095Y-30733095D01*
%TO.C,U2*%
D14*
X41388626Y-30626124D02*
X41388626Y-31435960D01*
X41436263Y-31531235D01*
X41483901Y-31578873D01*
X41579175Y-31626510D01*
X41769725Y-31626510D01*
X41865000Y-31578873D01*
X41912637Y-31531235D01*
X41960275Y-31435960D01*
X41960275Y-30626124D01*
X42389012Y-30721399D02*
X42436649Y-30673762D01*
X42531924Y-30626124D01*
X42770111Y-30626124D01*
X42865386Y-30673762D01*
X42913023Y-30721399D01*
X42960661Y-30816674D01*
X42960661Y-30911949D01*
X42913023Y-31054861D01*
X42341374Y-31626510D01*
X42960661Y-31626510D01*
%TO.C,Y1*%
D13*
X73788809Y-52926190D02*
X73788809Y-53402380D01*
X73455476Y-52402380D02*
X73788809Y-52926190D01*
X74122142Y-52402380D01*
X74979285Y-53402380D02*
X74407857Y-53402380D01*
X74693571Y-53402380D02*
X74693571Y-52402380D01*
X74598333Y-52545238D01*
X74503095Y-52640476D01*
X74407857Y-52688095D01*
%TD*%
M02*
