%TF.GenerationSoftware,KiCad,Pcbnew,(5.1.10)-1*%
%TF.CreationDate,2021-06-22T20:16:26+08:00*%
%TF.ProjectId,sm8223,736d3832-3233-42e6-9b69-6361645f7063,rev?*%
%TF.SameCoordinates,Original*%
%TF.FileFunction,Soldermask,Bot*%
%TF.FilePolarity,Negative*%
%FSLAX46Y46*%
G04 Gerber Fmt 4.6, Leading zero omitted, Abs format (unit mm)*
G04 Created by KiCad (PCBNEW (5.1.10)-1) date 2021-06-22 20:16:26*
%MOMM*%
%LPD*%
G01*
G04 APERTURE LIST*
%ADD10R,2.200000X2.200000*%
%ADD11O,2.200000X2.200000*%
%ADD12C,3.250000*%
%ADD13C,1.520000*%
%ADD14R,1.520000X1.520000*%
%ADD15R,1.600000X1.600000*%
%ADD16O,1.600000X1.600000*%
%ADD17R,1.560000X1.560000*%
%ADD18C,1.560000*%
%ADD19C,1.500000*%
G04 APERTURE END LIST*
D10*
%TO.C,D2*%
X80655000Y-46125000D03*
D11*
X88275000Y-46125000D03*
%TD*%
%TO.C,D3*%
X77195000Y-70425000D03*
D10*
X69575000Y-70425000D03*
%TD*%
%TO.C,D4*%
X80945000Y-61925000D03*
D11*
X88565000Y-61925000D03*
%TD*%
%TO.C,D5*%
X77195000Y-66175000D03*
D10*
X69575000Y-66175000D03*
%TD*%
D11*
%TO.C,D6*%
X88275000Y-41875000D03*
D10*
X80655000Y-41875000D03*
%TD*%
%TO.C,D7*%
X82725000Y-53425000D03*
D11*
X90345000Y-53425000D03*
%TD*%
D10*
%TO.C,D8*%
X80655000Y-37625000D03*
D11*
X88275000Y-37625000D03*
%TD*%
%TO.C,D9*%
X77195000Y-61925000D03*
D10*
X69575000Y-61925000D03*
%TD*%
%TO.C,D10*%
X80655000Y-33375000D03*
D11*
X88275000Y-33375000D03*
%TD*%
D12*
%TO.C,J1*%
X92070000Y-78740000D03*
D13*
X90170000Y-72390000D03*
X88900000Y-69850000D03*
X87630000Y-72390000D03*
X86360000Y-69850000D03*
X85090000Y-72390000D03*
D12*
X81910000Y-78740000D03*
D14*
X83820000Y-69850000D03*
%TD*%
D15*
%TO.C,U1*%
X69325000Y-33325000D03*
D16*
X76945000Y-51105000D03*
X69325000Y-35865000D03*
X76945000Y-48565000D03*
X69325000Y-38405000D03*
X76945000Y-46025000D03*
X69325000Y-40945000D03*
X76945000Y-43485000D03*
X69325000Y-43485000D03*
X76945000Y-40945000D03*
X69325000Y-46025000D03*
X76945000Y-38405000D03*
X69325000Y-48565000D03*
X76945000Y-35865000D03*
X69325000Y-51105000D03*
X76945000Y-33325000D03*
%TD*%
D17*
%TO.C,U2*%
X40280000Y-39860000D03*
D18*
X40280000Y-42400000D03*
X40280000Y-85580000D03*
X40280000Y-44940000D03*
X40280000Y-47480000D03*
X40280000Y-50020000D03*
X40280000Y-52560000D03*
X40280000Y-55100000D03*
X40280000Y-57640000D03*
X40280000Y-60180000D03*
X40280000Y-62720000D03*
X40280000Y-65260000D03*
X40280000Y-67800000D03*
X40280000Y-70340000D03*
X40280000Y-72880000D03*
X40280000Y-75420000D03*
X40280000Y-77960000D03*
X40280000Y-80500000D03*
X40280000Y-83040000D03*
X65680000Y-39860000D03*
X65680000Y-42400000D03*
X65680000Y-44940000D03*
X65680000Y-47480000D03*
X65680000Y-50020000D03*
X65680000Y-52560000D03*
X65680000Y-55100000D03*
X65680000Y-57640000D03*
X65680000Y-60180000D03*
X65680000Y-62720000D03*
X65680000Y-65260000D03*
X65680000Y-67800000D03*
X65680000Y-70340000D03*
X65680000Y-72880000D03*
X65680000Y-75420000D03*
X65680000Y-77960000D03*
X65680000Y-80500000D03*
X65680000Y-83040000D03*
X65680000Y-85580000D03*
%TD*%
D19*
%TO.C,Y1*%
X71825000Y-56475000D03*
X76705000Y-56475000D03*
%TD*%
M02*
