M48
INCH,TZ
T1C0.0157
T2C0.0299
T3C0.0315
T4C0.0409
T5C0.0433
%
G90
G05
T1
X27325Y-29271
X27325Y-32382
X27398Y-28680
X29158Y-16933
X32551Y-19960
X33240Y-20436
X35042Y-19810
X35107Y-20284
X36762Y-23565
T2
X33000Y-27500
X33500Y-28500
X34000Y-27500
X34500Y-28500
X35000Y-27500
X35500Y-28500
T3
X27293Y-13120
X27293Y-14120
X27293Y-15120
X27293Y-16120
X27293Y-17120
X27293Y-18120
X27293Y-19120
X27293Y-20120
X28278Y-22234
X30199Y-22234
X30293Y-13120
X30293Y-14120
X30293Y-15120
X30293Y-16120
X30293Y-17120
X30293Y-18120
X30293Y-19120
X30293Y-20120
T4
X15858Y-15693
X15858Y-16693
X15858Y-17693
X15858Y-18693
X15858Y-19693
X15858Y-20693
X15858Y-21693
X15858Y-22693
X15858Y-23693
X15858Y-24693
X15858Y-25693
X15858Y-26693
X15858Y-27693
X15858Y-28693
X15858Y-29693
X15858Y-30693
X15858Y-31693
X15858Y-32693
X15858Y-33693
X25858Y-15693
X25858Y-16693
X25858Y-17693
X25858Y-18693
X25858Y-19693
X25858Y-20693
X25858Y-21693
X25858Y-22693
X25858Y-23693
X25858Y-24693
X25858Y-25693
X25858Y-26693
X25858Y-27693
X25858Y-28693
X25858Y-29693
X25858Y-30693
X25858Y-31693
X25858Y-32693
X25858Y-33693
T5
X27392Y-24380
X27392Y-26053
X27392Y-27726
X30392Y-24380
X30392Y-26053
X30392Y-27726
X31754Y-13140
X31754Y-14813
X31754Y-16486
X31754Y-18159
X31868Y-24380
X32569Y-21033
X34754Y-13140
X34754Y-14813
X34754Y-16486
X34754Y-18159
X34868Y-24380
X35569Y-21033
T0
M30
