%TF.GenerationSoftware,KiCad,Pcbnew,(5.1.10)-1*%
%TF.CreationDate,2021-06-22T20:16:26+08:00*%
%TF.ProjectId,sm8223,736d3832-3233-42e6-9b69-6361645f7063,rev?*%
%TF.SameCoordinates,Original*%
%TF.FileFunction,Paste,Top*%
%TF.FilePolarity,Positive*%
%FSLAX46Y46*%
G04 Gerber Fmt 4.6, Leading zero omitted, Abs format (unit mm)*
G04 Created by KiCad (PCBNEW (5.1.10)-1) date 2021-06-22 20:16:26*
%MOMM*%
%LPD*%
G01*
G04 APERTURE LIST*
G04 APERTURE END LIST*
%TO.C,C1*%
G36*
G01*
X77440000Y-81015000D02*
X77440000Y-80515000D01*
G75*
G02*
X77665000Y-80290000I225000J0D01*
G01*
X78115000Y-80290000D01*
G75*
G02*
X78340000Y-80515000I0J-225000D01*
G01*
X78340000Y-81015000D01*
G75*
G02*
X78115000Y-81240000I-225000J0D01*
G01*
X77665000Y-81240000D01*
G75*
G02*
X77440000Y-81015000I0J225000D01*
G01*
G37*
G36*
G01*
X75890000Y-81015000D02*
X75890000Y-80515000D01*
G75*
G02*
X76115000Y-80290000I225000J0D01*
G01*
X76565000Y-80290000D01*
G75*
G02*
X76790000Y-80515000I0J-225000D01*
G01*
X76790000Y-81015000D01*
G75*
G02*
X76565000Y-81240000I-225000J0D01*
G01*
X76115000Y-81240000D01*
G75*
G02*
X75890000Y-81015000I0J225000D01*
G01*
G37*
%TD*%
%TO.C,C2*%
G36*
G01*
X90930000Y-35265000D02*
X90930000Y-34765000D01*
G75*
G02*
X91155000Y-34540000I225000J0D01*
G01*
X91605000Y-34540000D01*
G75*
G02*
X91830000Y-34765000I0J-225000D01*
G01*
X91830000Y-35265000D01*
G75*
G02*
X91605000Y-35490000I-225000J0D01*
G01*
X91155000Y-35490000D01*
G75*
G02*
X90930000Y-35265000I0J225000D01*
G01*
G37*
G36*
G01*
X92480000Y-35265000D02*
X92480000Y-34765000D01*
G75*
G02*
X92705000Y-34540000I225000J0D01*
G01*
X93155000Y-34540000D01*
G75*
G02*
X93380000Y-34765000I0J-225000D01*
G01*
X93380000Y-35265000D01*
G75*
G02*
X93155000Y-35490000I-225000J0D01*
G01*
X92705000Y-35490000D01*
G75*
G02*
X92480000Y-35265000I0J225000D01*
G01*
G37*
%TD*%
%TO.C,C3*%
G36*
G01*
X92480000Y-32755000D02*
X92480000Y-32255000D01*
G75*
G02*
X92705000Y-32030000I225000J0D01*
G01*
X93155000Y-32030000D01*
G75*
G02*
X93380000Y-32255000I0J-225000D01*
G01*
X93380000Y-32755000D01*
G75*
G02*
X93155000Y-32980000I-225000J0D01*
G01*
X92705000Y-32980000D01*
G75*
G02*
X92480000Y-32755000I0J225000D01*
G01*
G37*
G36*
G01*
X90930000Y-32755000D02*
X90930000Y-32255000D01*
G75*
G02*
X91155000Y-32030000I225000J0D01*
G01*
X91605000Y-32030000D01*
G75*
G02*
X91830000Y-32255000I0J-225000D01*
G01*
X91830000Y-32755000D01*
G75*
G02*
X91605000Y-32980000I-225000J0D01*
G01*
X91155000Y-32980000D01*
G75*
G02*
X90930000Y-32755000I0J225000D01*
G01*
G37*
%TD*%
%TO.C,C4*%
G36*
G01*
X69655000Y-77460000D02*
X69155000Y-77460000D01*
G75*
G02*
X68930000Y-77235000I0J225000D01*
G01*
X68930000Y-76785000D01*
G75*
G02*
X69155000Y-76560000I225000J0D01*
G01*
X69655000Y-76560000D01*
G75*
G02*
X69880000Y-76785000I0J-225000D01*
G01*
X69880000Y-77235000D01*
G75*
G02*
X69655000Y-77460000I-225000J0D01*
G01*
G37*
G36*
G01*
X69655000Y-75910000D02*
X69155000Y-75910000D01*
G75*
G02*
X68930000Y-75685000I0J225000D01*
G01*
X68930000Y-75235000D01*
G75*
G02*
X69155000Y-75010000I225000J0D01*
G01*
X69655000Y-75010000D01*
G75*
G02*
X69880000Y-75235000I0J-225000D01*
G01*
X69880000Y-75685000D01*
G75*
G02*
X69655000Y-75910000I-225000J0D01*
G01*
G37*
%TD*%
%TO.C,C5*%
G36*
G01*
X83180000Y-57055000D02*
X83180000Y-56555000D01*
G75*
G02*
X83405000Y-56330000I225000J0D01*
G01*
X83855000Y-56330000D01*
G75*
G02*
X84080000Y-56555000I0J-225000D01*
G01*
X84080000Y-57055000D01*
G75*
G02*
X83855000Y-57280000I-225000J0D01*
G01*
X83405000Y-57280000D01*
G75*
G02*
X83180000Y-57055000I0J225000D01*
G01*
G37*
G36*
G01*
X81630000Y-57055000D02*
X81630000Y-56555000D01*
G75*
G02*
X81855000Y-56330000I225000J0D01*
G01*
X82305000Y-56330000D01*
G75*
G02*
X82530000Y-56555000I0J-225000D01*
G01*
X82530000Y-57055000D01*
G75*
G02*
X82305000Y-57280000I-225000J0D01*
G01*
X81855000Y-57280000D01*
G75*
G02*
X81630000Y-57055000I0J225000D01*
G01*
G37*
%TD*%
%TO.C,C6*%
G36*
G01*
X69655000Y-79920000D02*
X69155000Y-79920000D01*
G75*
G02*
X68930000Y-79695000I0J225000D01*
G01*
X68930000Y-79245000D01*
G75*
G02*
X69155000Y-79020000I225000J0D01*
G01*
X69655000Y-79020000D01*
G75*
G02*
X69880000Y-79245000I0J-225000D01*
G01*
X69880000Y-79695000D01*
G75*
G02*
X69655000Y-79920000I-225000J0D01*
G01*
G37*
G36*
G01*
X69655000Y-81470000D02*
X69155000Y-81470000D01*
G75*
G02*
X68930000Y-81245000I0J225000D01*
G01*
X68930000Y-80795000D01*
G75*
G02*
X69155000Y-80570000I225000J0D01*
G01*
X69655000Y-80570000D01*
G75*
G02*
X69880000Y-80795000I0J-225000D01*
G01*
X69880000Y-81245000D01*
G75*
G02*
X69655000Y-81470000I-225000J0D01*
G01*
G37*
%TD*%
%TO.C,C7*%
G36*
G01*
X69655000Y-85480000D02*
X69155000Y-85480000D01*
G75*
G02*
X68930000Y-85255000I0J225000D01*
G01*
X68930000Y-84805000D01*
G75*
G02*
X69155000Y-84580000I225000J0D01*
G01*
X69655000Y-84580000D01*
G75*
G02*
X69880000Y-84805000I0J-225000D01*
G01*
X69880000Y-85255000D01*
G75*
G02*
X69655000Y-85480000I-225000J0D01*
G01*
G37*
G36*
G01*
X69655000Y-83930000D02*
X69155000Y-83930000D01*
G75*
G02*
X68930000Y-83705000I0J225000D01*
G01*
X68930000Y-83255000D01*
G75*
G02*
X69155000Y-83030000I225000J0D01*
G01*
X69655000Y-83030000D01*
G75*
G02*
X69880000Y-83255000I0J-225000D01*
G01*
X69880000Y-83705000D01*
G75*
G02*
X69655000Y-83930000I-225000J0D01*
G01*
G37*
%TD*%
%TO.C,R1*%
G36*
G01*
X73465000Y-83930000D02*
X72965000Y-83930000D01*
G75*
G02*
X72740000Y-83705000I0J225000D01*
G01*
X72740000Y-83255000D01*
G75*
G02*
X72965000Y-83030000I225000J0D01*
G01*
X73465000Y-83030000D01*
G75*
G02*
X73690000Y-83255000I0J-225000D01*
G01*
X73690000Y-83705000D01*
G75*
G02*
X73465000Y-83930000I-225000J0D01*
G01*
G37*
G36*
G01*
X73465000Y-85480000D02*
X72965000Y-85480000D01*
G75*
G02*
X72740000Y-85255000I0J225000D01*
G01*
X72740000Y-84805000D01*
G75*
G02*
X72965000Y-84580000I225000J0D01*
G01*
X73465000Y-84580000D01*
G75*
G02*
X73690000Y-84805000I0J-225000D01*
G01*
X73690000Y-85255000D01*
G75*
G02*
X73465000Y-85480000I-225000J0D01*
G01*
G37*
%TD*%
%TO.C,R2*%
G36*
G01*
X85640000Y-57055000D02*
X85640000Y-56555000D01*
G75*
G02*
X85865000Y-56330000I225000J0D01*
G01*
X86315000Y-56330000D01*
G75*
G02*
X86540000Y-56555000I0J-225000D01*
G01*
X86540000Y-57055000D01*
G75*
G02*
X86315000Y-57280000I-225000J0D01*
G01*
X85865000Y-57280000D01*
G75*
G02*
X85640000Y-57055000I0J225000D01*
G01*
G37*
G36*
G01*
X87190000Y-57055000D02*
X87190000Y-56555000D01*
G75*
G02*
X87415000Y-56330000I225000J0D01*
G01*
X87865000Y-56330000D01*
G75*
G02*
X88090000Y-56555000I0J-225000D01*
G01*
X88090000Y-57055000D01*
G75*
G02*
X87865000Y-57280000I-225000J0D01*
G01*
X87415000Y-57280000D01*
G75*
G02*
X87190000Y-57055000I0J225000D01*
G01*
G37*
%TD*%
%TO.C,R3*%
G36*
G01*
X85270000Y-66290000D02*
X85270000Y-65790000D01*
G75*
G02*
X85495000Y-65565000I225000J0D01*
G01*
X85945000Y-65565000D01*
G75*
G02*
X86170000Y-65790000I0J-225000D01*
G01*
X86170000Y-66290000D01*
G75*
G02*
X85945000Y-66515000I-225000J0D01*
G01*
X85495000Y-66515000D01*
G75*
G02*
X85270000Y-66290000I0J225000D01*
G01*
G37*
G36*
G01*
X83720000Y-66290000D02*
X83720000Y-65790000D01*
G75*
G02*
X83945000Y-65565000I225000J0D01*
G01*
X84395000Y-65565000D01*
G75*
G02*
X84620000Y-65790000I0J-225000D01*
G01*
X84620000Y-66290000D01*
G75*
G02*
X84395000Y-66515000I-225000J0D01*
G01*
X83945000Y-66515000D01*
G75*
G02*
X83720000Y-66290000I0J225000D01*
G01*
G37*
%TD*%
%TO.C,R4*%
G36*
G01*
X83370000Y-49780000D02*
X83370000Y-49280000D01*
G75*
G02*
X83595000Y-49055000I225000J0D01*
G01*
X84045000Y-49055000D01*
G75*
G02*
X84270000Y-49280000I0J-225000D01*
G01*
X84270000Y-49780000D01*
G75*
G02*
X84045000Y-50005000I-225000J0D01*
G01*
X83595000Y-50005000D01*
G75*
G02*
X83370000Y-49780000I0J225000D01*
G01*
G37*
G36*
G01*
X84920000Y-49780000D02*
X84920000Y-49280000D01*
G75*
G02*
X85145000Y-49055000I225000J0D01*
G01*
X85595000Y-49055000D01*
G75*
G02*
X85820000Y-49280000I0J-225000D01*
G01*
X85820000Y-49780000D01*
G75*
G02*
X85595000Y-50005000I-225000J0D01*
G01*
X85145000Y-50005000D01*
G75*
G02*
X84920000Y-49780000I0J225000D01*
G01*
G37*
%TD*%
%TO.C,R5*%
G36*
G01*
X89225000Y-66290000D02*
X89225000Y-65790000D01*
G75*
G02*
X89450000Y-65565000I225000J0D01*
G01*
X89900000Y-65565000D01*
G75*
G02*
X90125000Y-65790000I0J-225000D01*
G01*
X90125000Y-66290000D01*
G75*
G02*
X89900000Y-66515000I-225000J0D01*
G01*
X89450000Y-66515000D01*
G75*
G02*
X89225000Y-66290000I0J225000D01*
G01*
G37*
G36*
G01*
X87675000Y-66290000D02*
X87675000Y-65790000D01*
G75*
G02*
X87900000Y-65565000I225000J0D01*
G01*
X88350000Y-65565000D01*
G75*
G02*
X88575000Y-65790000I0J-225000D01*
G01*
X88575000Y-66290000D01*
G75*
G02*
X88350000Y-66515000I-225000J0D01*
G01*
X87900000Y-66515000D01*
G75*
G02*
X87675000Y-66290000I0J225000D01*
G01*
G37*
%TD*%
%TO.C,R6*%
G36*
G01*
X73465000Y-81470000D02*
X72965000Y-81470000D01*
G75*
G02*
X72740000Y-81245000I0J225000D01*
G01*
X72740000Y-80795000D01*
G75*
G02*
X72965000Y-80570000I225000J0D01*
G01*
X73465000Y-80570000D01*
G75*
G02*
X73690000Y-80795000I0J-225000D01*
G01*
X73690000Y-81245000D01*
G75*
G02*
X73465000Y-81470000I-225000J0D01*
G01*
G37*
G36*
G01*
X73465000Y-79920000D02*
X72965000Y-79920000D01*
G75*
G02*
X72740000Y-79695000I0J225000D01*
G01*
X72740000Y-79245000D01*
G75*
G02*
X72965000Y-79020000I225000J0D01*
G01*
X73465000Y-79020000D01*
G75*
G02*
X73690000Y-79245000I0J-225000D01*
G01*
X73690000Y-79695000D01*
G75*
G02*
X73465000Y-79920000I-225000J0D01*
G01*
G37*
%TD*%
%TO.C,R7*%
G36*
G01*
X75890000Y-83525000D02*
X75890000Y-83025000D01*
G75*
G02*
X76115000Y-82800000I225000J0D01*
G01*
X76565000Y-82800000D01*
G75*
G02*
X76790000Y-83025000I0J-225000D01*
G01*
X76790000Y-83525000D01*
G75*
G02*
X76565000Y-83750000I-225000J0D01*
G01*
X76115000Y-83750000D01*
G75*
G02*
X75890000Y-83525000I0J225000D01*
G01*
G37*
G36*
G01*
X77440000Y-83525000D02*
X77440000Y-83025000D01*
G75*
G02*
X77665000Y-82800000I225000J0D01*
G01*
X78115000Y-82800000D01*
G75*
G02*
X78340000Y-83025000I0J-225000D01*
G01*
X78340000Y-83525000D01*
G75*
G02*
X78115000Y-83750000I-225000J0D01*
G01*
X77665000Y-83750000D01*
G75*
G02*
X77440000Y-83525000I0J225000D01*
G01*
G37*
%TD*%
%TO.C,R8*%
G36*
G01*
X91115000Y-58930000D02*
X90615000Y-58930000D01*
G75*
G02*
X90390000Y-58705000I0J225000D01*
G01*
X90390000Y-58255000D01*
G75*
G02*
X90615000Y-58030000I225000J0D01*
G01*
X91115000Y-58030000D01*
G75*
G02*
X91340000Y-58255000I0J-225000D01*
G01*
X91340000Y-58705000D01*
G75*
G02*
X91115000Y-58930000I-225000J0D01*
G01*
G37*
G36*
G01*
X91115000Y-57380000D02*
X90615000Y-57380000D01*
G75*
G02*
X90390000Y-57155000I0J225000D01*
G01*
X90390000Y-56705000D01*
G75*
G02*
X90615000Y-56480000I225000J0D01*
G01*
X91115000Y-56480000D01*
G75*
G02*
X91340000Y-56705000I0J-225000D01*
G01*
X91340000Y-57155000D01*
G75*
G02*
X91115000Y-57380000I-225000J0D01*
G01*
G37*
%TD*%
%TO.C,R9*%
G36*
G01*
X79560000Y-49755000D02*
X79560000Y-49255000D01*
G75*
G02*
X79785000Y-49030000I225000J0D01*
G01*
X80235000Y-49030000D01*
G75*
G02*
X80460000Y-49255000I0J-225000D01*
G01*
X80460000Y-49755000D01*
G75*
G02*
X80235000Y-49980000I-225000J0D01*
G01*
X79785000Y-49980000D01*
G75*
G02*
X79560000Y-49755000I0J225000D01*
G01*
G37*
G36*
G01*
X81110000Y-49755000D02*
X81110000Y-49255000D01*
G75*
G02*
X81335000Y-49030000I225000J0D01*
G01*
X81785000Y-49030000D01*
G75*
G02*
X82010000Y-49255000I0J-225000D01*
G01*
X82010000Y-49755000D01*
G75*
G02*
X81785000Y-49980000I-225000J0D01*
G01*
X81335000Y-49980000D01*
G75*
G02*
X81110000Y-49755000I0J225000D01*
G01*
G37*
%TD*%
%TO.C,R10*%
G36*
G01*
X79850000Y-66290000D02*
X79850000Y-65790000D01*
G75*
G02*
X80075000Y-65565000I225000J0D01*
G01*
X80525000Y-65565000D01*
G75*
G02*
X80750000Y-65790000I0J-225000D01*
G01*
X80750000Y-66290000D01*
G75*
G02*
X80525000Y-66515000I-225000J0D01*
G01*
X80075000Y-66515000D01*
G75*
G02*
X79850000Y-66290000I0J225000D01*
G01*
G37*
G36*
G01*
X81400000Y-66290000D02*
X81400000Y-65790000D01*
G75*
G02*
X81625000Y-65565000I225000J0D01*
G01*
X82075000Y-65565000D01*
G75*
G02*
X82300000Y-65790000I0J-225000D01*
G01*
X82300000Y-66290000D01*
G75*
G02*
X82075000Y-66515000I-225000J0D01*
G01*
X81625000Y-66515000D01*
G75*
G02*
X81400000Y-66290000I0J225000D01*
G01*
G37*
%TD*%
%TO.C,R11*%
G36*
G01*
X93625000Y-57380000D02*
X93125000Y-57380000D01*
G75*
G02*
X92900000Y-57155000I0J225000D01*
G01*
X92900000Y-56705000D01*
G75*
G02*
X93125000Y-56480000I225000J0D01*
G01*
X93625000Y-56480000D01*
G75*
G02*
X93850000Y-56705000I0J-225000D01*
G01*
X93850000Y-57155000D01*
G75*
G02*
X93625000Y-57380000I-225000J0D01*
G01*
G37*
G36*
G01*
X93625000Y-58930000D02*
X93125000Y-58930000D01*
G75*
G02*
X92900000Y-58705000I0J225000D01*
G01*
X92900000Y-58255000D01*
G75*
G02*
X93125000Y-58030000I225000J0D01*
G01*
X93625000Y-58030000D01*
G75*
G02*
X93850000Y-58255000I0J-225000D01*
G01*
X93850000Y-58705000D01*
G75*
G02*
X93625000Y-58930000I-225000J0D01*
G01*
G37*
%TD*%
%TO.C,R12*%
G36*
G01*
X73465000Y-75910000D02*
X72965000Y-75910000D01*
G75*
G02*
X72740000Y-75685000I0J225000D01*
G01*
X72740000Y-75235000D01*
G75*
G02*
X72965000Y-75010000I225000J0D01*
G01*
X73465000Y-75010000D01*
G75*
G02*
X73690000Y-75235000I0J-225000D01*
G01*
X73690000Y-75685000D01*
G75*
G02*
X73465000Y-75910000I-225000J0D01*
G01*
G37*
G36*
G01*
X73465000Y-77460000D02*
X72965000Y-77460000D01*
G75*
G02*
X72740000Y-77235000I0J225000D01*
G01*
X72740000Y-76785000D01*
G75*
G02*
X72965000Y-76560000I225000J0D01*
G01*
X73465000Y-76560000D01*
G75*
G02*
X73690000Y-76785000I0J-225000D01*
G01*
X73690000Y-77235000D01*
G75*
G02*
X73465000Y-77460000I-225000J0D01*
G01*
G37*
%TD*%
M02*
